<svg xmlns="http://www.w3.org/2000/svg" width="64" height="64" viewBox="0 0 64 64" fill="none" class="injected-svg" data-src="../../assets/svgIcons/28ffc11f3833.svg" xmlns:xlink="http://www.w3.org/1999/xlink" role="img">
<path fill-rule="evenodd" clip-rule="evenodd" d="M30.5996 16.4004H36.7996C37.0996 16.4004 37.2996 16.5004 37.4996 16.6004C37.6996 16.7004 37.8996 16.9004 38.0996 17.1004L39.7996 19.7004L42.5996 16.9004C42.6996 16.8004 42.8996 16.6004 43.0996 16.6004C43.2996 16.5004 43.4996 16.5004 43.6996 16.5004H46.1996C46.5996 16.5004 46.9996 16.7004 47.2996 17.0004C47.5996 17.3004 47.7996 17.7004 47.7996 18.1004V21.2004C47.7996 21.6004 47.5996 22.0004 47.2996 22.3004C46.9996 22.6004 46.5996 22.7004 46.1996 22.8004H41.7996L44.5996 27.0004C45.5996 26.5004 46.6996 26.2004 47.7996 26.0004C48.8996 25.8004 50.0996 25.9004 51.2996 26.1004C52.8996 26.4004 54.2996 27.0004 55.4996 27.9004C56.7996 28.8004 57.7996 29.9004 58.5996 31.2004L60.0996 35.6004L59.9996 38.7004C59.7996 39.8004 59.4996 40.8004 58.9996 41.7004C57.9996 43.6004 56.5996 45.1004 54.7996 46.1004C52.9996 47.2004 50.8996 47.7004 48.5996 47.6004C46.7996 47.5004 45.1996 47.0004 43.7996 46.1004C42.2996 45.2004 41.0996 44.1004 40.1996 42.6004C39.2996 41.2004 38.6996 39.6004 38.4996 37.8004C38.2996 35.9004 38.4996 34.2004 39.1996 32.6004C39.7996 31.0004 40.7996 29.6004 42.0996 28.5004L40.3996 25.9004C38.7996 27.2004 37.5996 28.8004 36.6996 30.6004C35.7996 32.4004 35.3996 34.4004 35.2996 36.6004C35.2996 37.1004 35.0996 37.4004 34.8996 37.7004C34.5996 38.0004 34.1996 38.2004 33.7996 38.2004H27.4996H25.7996C25.4996 40.0004 24.8996 41.6004 23.8996 43.0004C22.8996 44.4004 21.5996 45.5004 20.0996 46.3004C18.5996 47.1004 16.8996 47.5004 14.9996 47.6004C12.9996 47.6004 11.0996 47.1004 9.49961 46.1004C7.89961 45.1004 6.59961 43.8004 5.59961 42.2004C4.59961 40.6004 4.09961 38.7004 4.09961 36.7004C4.09961 34.7004 4.59961 32.8004 5.59961 31.2004C6.59961 29.6004 7.89961 28.3004 9.49961 27.3004C11.0996 26.3004 12.9996 25.8004 14.9996 25.8004C15.6996 25.8004 16.2996 25.9004 16.8996 26.0004C17.4996 26.1004 18.0996 26.3004 18.6996 26.5004L19.2996 25.4004C18.3996 24.6004 17.2996 23.9004 15.9996 23.4004C14.7996 22.9004 13.3996 22.7004 11.7996 22.7004H10.1996C9.79961 22.7004 9.39961 22.5004 9.09961 22.2004C8.79961 21.9004 8.59961 21.5004 8.59961 21.1004C8.59961 20.7004 8.79961 20.3004 9.09961 20.0004C9.39961 19.7004 9.79961 19.5004 10.1996 19.5004H13.2996C15.0996 19.5004 16.6996 19.7004 17.8996 20.1004C19.1996 20.5004 20.1996 20.9004 20.8996 21.4004C21.6996 21.9004 22.2996 22.3004 22.5996 22.6004H35.0996H37.9996L35.8996 19.5004H30.4996C29.9996 19.5004 29.5996 19.3004 29.2996 18.9004C28.9996 18.6004 28.8996 18.1004 28.9996 17.6004C29.0996 17.2004 29.2996 16.9004 29.5996 16.7004C29.7996 16.5004 30.1996 16.4004 30.5996 16.4004ZM14.8996 28.9004C13.4996 28.9004 12.0996 29.3004 10.9996 30.0004C9.79961 30.7004 8.89961 31.6004 8.19961 32.8004C7.49961 34.0004 7.09961 35.3004 7.09961 36.7004C7.09961 38.1004 7.49961 39.5004 8.19961 40.6004C8.89961 41.8004 9.79961 42.7004 10.9996 43.4004C12.1996 44.1004 13.4996 44.4004 14.8996 44.5004C16.7996 44.5004 18.4996 43.9004 19.8996 42.7004C21.2996 41.5004 22.1996 40.1004 22.5996 38.2004H14.8996C14.5996 38.2004 14.3996 38.1004 14.0996 38.0004C13.8996 37.9004 13.6996 37.7004 13.4996 37.4004C13.3996 37.2004 13.2996 36.9004 13.2996 36.7004C13.2996 36.4004 13.3996 36.2004 13.4996 35.9004L17.0996 29.1004C16.6996 29.1004 16.3996 29.0004 15.9996 29.0004C15.5996 28.9004 15.2996 28.9004 14.8996 28.9004ZM49.1996 28.9004C48.6996 28.9004 48.1996 28.9004 47.6996 29.1004C47.1996 29.2004 46.6996 29.3004 46.2996 29.5004L50.4996 35.8004C50.6996 36.2004 50.7996 36.6004 50.6996 37.0004C50.5996 37.4004 50.3996 37.7004 49.9996 38.0004C49.8996 38.1004 49.6996 38.2004 49.5996 38.2004C49.4996 38.2004 49.2996 38.3004 49.1996 38.3004C48.8996 38.3004 48.6996 38.2004 48.4996 38.1004C48.2996 38.0004 48.0996 37.8004 47.8996 37.6004L43.6996 31.3004C42.9996 32.0004 42.3996 32.8004 41.9996 33.8004C41.5996 34.7004 41.3996 35.7004 41.3996 36.8004C41.3996 38.2004 41.7996 39.6004 42.4996 40.7004C43.1996 41.9004 44.0996 42.8004 45.2996 43.5004C46.4996 44.2004 47.7996 44.5004 49.1996 44.6004C50.5996 44.6004 51.9996 44.2004 53.0996 43.5004C54.2996 42.8004 55.1996 41.9004 55.8996 40.7004C56.5996 39.5004 56.8996 38.2004 56.9996 36.8004C56.9996 35.4004 56.5996 34.0004 55.8996 32.9004C55.1996 31.7004 54.2996 30.8004 53.0996 30.1004C51.9996 29.2004 50.6996 28.9004 49.1996 28.9004Z" fill="#5b5b5b"/>
</svg>