<svg xmlns="http://www.w3.org/2000/svg" width="64" height="64" viewBox="0 0 64 64" fill="none" class="injected-svg" data-src="../../assets/svgIcons/4ecede2a3584.svg" xmlns:xlink="http://www.w3.org/1999/xlink" role="img">
<path fill-rule="evenodd" clip-rule="evenodd" d="M41 32.7C41.7 33.1 41.7 34.1 41 34.8C30.4 45.5 30.4 45.5 30.4 45.5C30 45.9 29.7 45.9 29.3 45.9C28.9 45.9 28.6 45.9 28.2 45.5C22.9 40.5 22.9 40.5 22.9 40.5C22.5 39.8 22.5 39.1 22.9 38.4C23.6 37.7 24.7 37.7 25 38.4C29.2 42.3 29.2 42.3 29.2 42.3C38.7 32.7 38.7 32.7 38.7 32.7C39.6 32 40.3 32 41 32.7ZM7.8 57.6C7.8 20.9 7.8 20.9 7.8 20.9C56.2 20.9 56.2 20.9 56.2 20.9C56.2 57.6 56.2 57.6 56.2 57.6C7.8 57.6 7.8 57.6 7.8 57.6ZM18.4 6.4C30.8 6.4 30.8 6.4 30.8 6.4C30.8 18.1 30.8 18.1 30.8 18.1C9.2 18.1 9.2 18.1 9.2 18.1L18.4 6.4ZM54.8 18.1C33.6 18.1 33.6 18.1 33.6 18.1C33.6 6.4 33.6 6.4 33.6 6.4C46 6.4 46 6.4 46 6.4L54.8 18.1ZM59 18.1C47.7 4.2 47.7 4.2 47.7 4.2C47.3 3.8 47 3.5 46.6 3.5C17.6 3.5 17.6 3.5 17.6 3.5C16.9 3.5 16.5 3.9 16.2 4.2C5.3 18.1 5.3 18.1 5.3 18.1C5 18.5 5 18.8 5 19.2C5 59 5 59 5 59C5 59.7 5.7 60.4 6.4 60.4C57.6 60.4 57.6 60.4 57.6 60.4C58.7 60.4 59 59.7 59 59C59 19.1 59 19.1 59 19.1C59 18.8 59 18.5 59 18.1Z" fill="#ffffff"/>
</svg>