<svg xmlns="http://www.w3.org/2000/svg" width="64" height="64" viewBox="0 0 64 64" fill="none" class="injected-svg" data-src="../../assets/svgIcons/c406ab1329e7.svg" xmlns:xlink="http://www.w3.org/1999/xlink" role="img">
<path fill-rule="evenodd" clip-rule="evenodd" d="M31.3998 1.9707C30.6598 1.9707 29.9298 2.1507 29.2798 2.5207L4.40977 15.8807C2.93977 16.7107 2.00977 18.1807 2.00977 19.8407V44.3507C2.00977 46.0107 2.92977 47.5707 4.40977 48.3107L29.2798 61.4807C29.9198 61.8507 30.6598 62.0307 31.3998 62.0307C32.1398 62.0307 32.7798 61.8507 33.4298 61.5707L59.4998 48.4007C60.9698 47.6607 61.9898 46.1007 61.9898 44.4407V20.0207C61.9898 18.3607 61.0698 16.8007 59.4998 16.0607L33.4298 2.7007C32.8798 2.1507 32.1398 1.9707 31.3998 1.9707ZM58.4898 21.0407V44.2607C58.4898 44.6307 58.3098 45.0007 57.9398 45.0907L33.1498 57.6107V33.6607L44.6698 27.9507V33.9407C44.6698 34.8607 45.4098 35.6907 46.4198 35.6907C47.3398 35.6907 48.1698 34.8607 48.1698 33.9407V26.2007L58.4898 21.0407ZM5.60977 21.0407L29.6598 33.6607V57.6107L6.06977 45.1707C5.78977 44.9907 5.51977 44.7107 5.51977 44.3407V21.0407H5.60977ZM18.2298 12.3807L42.4598 25.0007L31.3998 30.5307L7.53977 18.0907L18.2298 12.3807ZM31.3998 5.4707C31.5798 5.4707 31.6798 5.4707 31.8598 5.5607L56.2698 18.0907L46.3198 23.0607L21.9998 10.3507L30.9398 5.5607C31.1198 5.5607 31.3098 5.4707 31.3998 5.4707Z" fill="#ffffff"/>
<path fill-rule="evenodd" clip-rule="evenodd" d="M21.7298 35.5898C21.4498 35.5898 21.0898 35.6798 20.8098 35.8698L15.3698 39.0898L14.1698 36.9698C13.8898 36.4198 13.2498 36.0498 12.5998 36.0498C12.3198 36.0498 12.0498 36.1398 11.7698 36.3298C10.9398 36.7898 10.6598 37.8998 11.1298 38.7298L13.2498 42.3198V42.4098V42.4998H13.3398H13.4298H13.5198C13.5198 42.4998 13.5198 42.4998 13.6098 42.4998H13.6998H13.7898H13.8798H13.9698C13.9698 42.4998 13.9698 42.4998 14.0598 42.4998H14.1498H14.2398H14.3298H14.4198H14.5098H14.5998H14.6898H14.9998H15.0898H15.1798C15.1798 42.4998 15.1798 42.4998 15.2698 42.4998H15.3598H15.4498H15.5398H15.6298H15.7198H15.8098H15.8998H15.9898H16.0798L22.9898 38.3498C23.8198 37.8898 24.0998 36.7798 23.6298 35.9498C22.9298 35.8698 22.3698 35.5898 21.7298 35.5898Z" fill="#ffffff"/>
</svg>