<svg xmlns="http://www.w3.org/2000/svg" width="481" height="313" viewBox="0 0 481 313" fill="none" class="injected-svg" data-src="../../assets/svgIcons/6bb827039081.svg" xmlns:xlink="http://www.w3.org/1999/xlink" role="img">
<path d="M479.927 222.087C479.987 221.777 480.137 221.507 480.157 221.187C480.157 221.187 480.227 220.068 480.167 218.137C480.107 216.547 479.457 215.157 478.547 213.997C476.897 206.897 473.607 197.898 466.907 188.747C446.987 161.537 409.077 147.727 354.257 147.727H352.337L287.847 76.0471C274.137 60.8171 255.067 51.5272 234.777 49.8972L221.687 6.1172C220.757 3.02719 217.937 0.916992 214.717 0.916992H139.207C135.997 0.916992 133.167 3.02719 132.247 6.1172L119.167 49.8572C97.7565 51.3172 77.7967 61.2173 63.7767 77.6774L19.2866 129.907C6.96657 144.367 0.186523 162.797 0.186523 181.787V193.047V229.417V238.488C0.186523 254.528 13.2365 267.578 29.2765 267.578H58.0965C61.7465 292.678 83.3466 312.018 109.447 312.018C135.547 312.018 157.147 292.668 160.797 267.578H297.747C301.397 292.678 322.997 312.018 349.097 312.018C375.197 312.018 396.797 292.668 400.467 267.578H451.097C467.137 267.578 480.177 254.528 480.177 238.488V229.417V225.417C480.137 224.527 480.057 223.367 479.927 222.087ZM465.327 222.137H435.537C429.527 222.137 424.637 217.247 424.637 211.227C424.637 205.207 429.527 200.317 435.537 200.317H457.217C462.767 208.987 464.697 217.107 465.327 222.137ZM144.647 15.4672H209.307L219.507 49.5572H134.457L144.647 15.4672ZM14.7465 200.317H19.8066C25.8366 200.317 30.7264 205.207 30.7264 211.227C30.7264 217.247 25.8366 222.137 19.8066 222.137H14.7465V200.317ZM109.447 297.478C88.8166 297.478 72.0265 280.687 72.0265 260.057C72.0265 239.427 88.8266 222.638 109.447 222.638C130.067 222.638 146.867 239.427 146.867 260.057C146.867 280.687 130.077 297.478 109.447 297.478ZM349.097 297.478C328.467 297.478 311.677 280.687 311.677 260.057C311.677 239.427 328.477 222.638 349.097 222.638C369.727 222.638 386.517 239.427 386.517 260.057C386.517 280.687 369.737 297.478 349.097 297.478ZM465.637 238.488C465.637 246.508 459.107 253.037 451.097 253.037H400.537C397.087 227.697 375.367 208.098 349.097 208.098C322.827 208.098 301.107 227.697 297.657 253.037H160.867C157.417 227.697 135.697 208.098 109.437 208.098C83.1665 208.098 61.4467 227.697 57.9967 253.037H29.2665C21.2465 253.037 14.7263 246.508 14.7263 238.488V236.688H19.7865C33.8265 236.688 45.2565 225.257 45.2565 211.227C45.2565 197.197 33.8265 185.767 19.7865 185.767H14.7263V181.787C14.7263 166.247 20.2765 151.167 30.3566 139.337L74.8467 87.1174C87.2867 72.4874 105.457 64.0973 124.657 64.0973H228.357C246.887 64.0973 264.627 71.9973 277.017 85.7774L343.677 159.867C345.057 161.397 347.017 162.267 349.077 162.267H354.247C394.397 162.267 425.017 170.347 444.057 185.767H435.517C421.497 185.767 410.067 197.197 410.067 211.227C410.067 225.257 421.497 236.688 435.517 236.688H465.607V238.488H465.637Z" fill="#5b5b5b"/>
<path d="M305.467 147.738H208.057V81.3776C208.057 77.3576 204.807 74.0977 200.777 74.0977C196.767 74.0977 193.507 77.3476 193.507 81.3776V155.008C193.507 159.018 196.757 162.278 200.777 162.278H305.467C309.487 162.278 312.737 159.028 312.737 155.008C312.737 150.988 309.487 147.738 305.467 147.738Z" fill="#5b5b5b"/>
<path d="M164.417 74.0977C160.407 74.0977 157.137 77.3476 157.137 81.3776V147.738H50.2064C46.1864 147.738 42.9365 150.998 42.9365 155.018C42.9365 159.038 46.1764 162.288 50.2064 162.288H164.417C168.437 162.288 171.697 159.038 171.697 155.018V81.3877C171.697 77.3577 168.447 74.0977 164.417 74.0977Z" fill="#5b5b5b"/>
<path d="M200.777 177.508C196.767 177.508 193.507 180.758 193.507 184.778V230.918C193.507 234.928 196.757 238.188 200.777 238.188C204.797 238.188 208.057 234.938 208.057 230.918V184.778C208.057 180.758 204.797 177.508 200.777 177.508Z" fill="#5b5b5b"/>
<path d="M109.447 268.188C113.937 268.188 117.577 264.548 117.577 260.058C117.577 255.568 113.937 251.928 109.447 251.928C104.957 251.928 101.317 255.568 101.317 260.058C101.317 264.548 104.957 268.188 109.447 268.188Z" fill="#5b5b5b"/>
<path d="M349.097 268.188C353.587 268.188 357.227 264.548 357.227 260.058C357.227 255.568 353.587 251.928 349.097 251.928C344.607 251.928 340.967 255.568 340.967 260.058C340.967 264.548 344.607 268.188 349.097 268.188Z" fill="#5b5b5b"/>
</svg>