<svg xmlns="http://www.w3.org/2000/svg" width="64" height="64" viewBox="0 0 64 64" fill="none" class="injected-svg" data-src="../../assets/svgIcons/4fe2fb39dad9.svg" xmlns:xlink="http://www.w3.org/1999/xlink" role="img">
<path fill-rule="evenodd" clip-rule="evenodd" d="M59.4996 7.89922C58.7996 6.79922 56.9996 6.79922 56.2996 7.89922C30.4996 33.5992 30.4996 33.5992 30.4996 33.5992C24.7996 27.8992 24.7996 27.8992 24.7996 27.8992C24.0996 26.7992 22.2996 26.7992 21.5996 27.8992C20.4996 28.5992 20.4996 30.3992 21.5996 31.0992C28.9996 38.5992 28.9996 38.5992 28.9996 38.5992C29.3996 38.9992 30.0996 39.2992 30.3996 39.2992C31.0996 39.2992 31.7996 38.8992 32.1996 38.5992C59.3996 11.0992 59.3996 11.0992 59.3996 11.0992C60.5996 10.3992 60.5996 8.59922 59.4996 7.89922ZM57.7996 29.6992C57.7996 32.1992 57.7996 32.1992 57.7996 32.1992C57.7996 39.2992 54.9996 46.0992 49.9996 51.4992C44.6996 56.4992 37.9996 59.3992 30.8996 59.3992C30.4996 59.3992 30.4996 59.3992 30.4996 59.3992C23.3996 59.3992 16.6996 56.4992 11.3996 51.4992C6.39961 46.0992 3.59961 39.3992 3.59961 31.8992C3.59961 24.7992 6.39961 17.9992 11.3996 12.5992C16.6996 7.59922 23.3996 4.69922 30.4996 4.69922C30.8996 4.69922 30.8996 4.69922 30.8996 4.69922C34.3996 4.69922 38.2996 5.39922 41.8996 7.19922C42.9996 7.59922 43.2996 8.99922 42.9996 10.0992C42.2996 11.1992 41.1996 11.8992 39.7996 11.1992C36.9996 10.0992 33.7996 9.39922 30.9996 9.39922C30.9996 9.39922 30.9996 9.39922 30.5996 9.39922C24.8996 9.39922 19.2996 11.8992 14.9996 16.1992C10.7996 20.4992 8.29961 25.7992 8.29961 31.8992C8.29961 44.6992 18.1996 54.6992 30.5996 54.6992C30.5996 54.6992 30.5996 54.6992 30.9996 54.6992C36.6996 54.6992 42.2996 52.1992 46.5996 47.8992C50.7996 43.5992 53.2996 38.2992 53.2996 32.1992C53.2996 29.6992 53.2996 29.6992 53.2996 29.6992C53.2996 28.2992 54.3996 27.5992 55.7996 27.5992C56.6996 27.4992 57.7996 28.1992 57.7996 29.6992Z" fill="#ffffff"/>
</svg>