<svg xmlns="http://www.w3.org/2000/svg" width="64" height="64" viewBox="0 0 64 64" fill="none" class="injected-svg" data-src="../../assets/svgIcons/69d85f85b900.svg" xmlns:xlink="http://www.w3.org/1999/xlink" role="img">
<path fill-rule="evenodd" clip-rule="evenodd" d="M39.1996 25.4008C28.5996 35.8008 28.5996 35.8008 28.5996 35.8008C24.7996 32.0008 24.7996 32.0008 24.7996 32.0008C24.4996 31.3008 23.3996 31.3008 22.6996 32.0008C22.3996 32.3008 22.3996 33.4008 22.6996 33.7008C27.4996 38.5008 27.4996 38.5008 27.4996 38.5008C27.7996 38.8008 28.1996 39.2008 28.4996 39.2008C28.7996 39.2008 29.1996 38.9008 29.4996 38.5008C41.1996 27.1008 41.1996 27.1008 41.1996 27.1008C41.4996 26.8008 41.4996 25.7008 41.1996 25.4008C40.5996 24.7008 39.8996 24.7008 39.1996 25.4008ZM31.9996 56.9008C18.2996 56.9008 7.29961 45.8008 7.29961 32.0008C7.29961 18.2008 18.2996 7.10078 31.9996 7.10078C45.6996 7.10078 56.6996 18.2008 56.6996 32.0008C56.6996 45.8008 45.6996 56.9008 31.9996 56.9008ZM31.9996 4.30078C16.8996 4.30078 4.59961 16.8008 4.59961 32.0008C4.59961 47.2008 16.8996 59.7008 31.9996 59.7008C47.0996 59.7008 59.3996 47.2008 59.3996 32.0008C59.3996 16.8008 47.0996 4.30078 31.9996 4.30078Z" fill="#666666"/>
</svg>