<svg xmlns="http://www.w3.org/2000/svg" width="64" height="64" viewBox="0 0 64 64" fill="none" class="injected-svg" data-src="../../assets/svgIcons/1a908233075c.svg" xmlns:xlink="http://www.w3.org/1999/xlink" role="img">
<path fill-rule="evenodd" clip-rule="evenodd" d="M33.0992 8.8C33.0992 33.2 33.0992 33.2 33.0992 33.2C33.0992 33.6 32.2992 34 31.9992 34C15.6992 34 15.6992 34 15.6992 34C15.2992 34 14.8992 33.6 14.8992 33.2C14.8992 32.4 15.2992 32.1 15.6992 32.1C30.7992 32.1 30.7992 32.1 30.7992 32.1C30.7992 8.9 30.7992 8.9 30.7992 8.9C30.7992 8.1 31.5992 7.8 31.8992 7.8C32.3992 7.6 33.0992 8 33.0992 8.8ZM31.9992 60.5C16.4992 60.5 3.59922 47.6 3.59922 32C3.59922 16.4 16.4992 3.5 31.9992 3.5C47.4992 3.5 60.3992 16.4 60.3992 32C60.3992 47.6 47.4992 60.5 31.9992 60.5ZM31.9992 1.5C15.3992 1.5 1.69922 15.3 1.69922 32C1.69922 48.7 15.3992 62.5 31.9992 62.5C48.5992 62.5 62.2992 48.7 62.2992 32C62.2992 15.3 48.5992 1.5 31.9992 1.5Z" fill="#549abb"/>
</svg>