<svg xmlns="http://www.w3.org/2000/svg" width="64" height="64" viewBox="0 0 64 64" fill="none" class="injected-svg" data-src="../../assets/svgIcons/bc5572d5a0d9.svg" xmlns:xlink="http://www.w3.org/1999/xlink" role="img">
<path fill-rule="evenodd" clip-rule="evenodd" d="M4.20039 59.8008C4.60039 60.2008 5.40039 60.2008 5.80039 60.2008C6.20039 60.2008 7.00039 60.2008 7.40039 59.8008C31.9004 34.7008 31.9004 34.7008 31.9004 34.7008C56.4004 59.8008 56.4004 59.8008 56.4004 59.8008C56.8004 60.2008 57.6004 60.2008 58.0004 60.2008C58.4004 60.2008 59.2004 60.2008 59.6004 59.8008C60.4004 59.0008 60.4004 57.4008 59.6004 56.7008C34.6004 32.0008 34.6004 32.0008 34.6004 32.0008C59.5004 7.20078 59.5004 7.20078 59.5004 7.20078C60.3004 6.40078 60.3004 4.80078 59.5004 4.10078C58.7004 3.70078 57.2004 3.70078 56.4004 4.10078C31.9004 29.2008 31.9004 29.2008 31.9004 29.2008C7.30039 4.10078 7.30039 4.10078 7.30039 4.10078C6.60039 3.70078 5.00039 3.70078 4.20039 4.10078C3.80039 4.90078 3.80039 6.50078 4.20039 7.20078C29.1004 32.0008 29.1004 32.0008 29.1004 32.0008C4.20039 56.7008 4.20039 56.7008 4.20039 56.7008C3.80039 57.5008 3.80039 59.0008 4.20039 59.8008Z" fill="#000000"/>
</svg>