<svg xmlns="http://www.w3.org/2000/svg" width="64" height="64" viewBox="0 0 64 64" fill="none" class="injected-svg" data-src="../../assets/svgIcons/1e53ab87c711.svg" xmlns:xlink="http://www.w3.org/1999/xlink" role="img">
<path fill-rule="evenodd" clip-rule="evenodd" d="M31.8016 5.00039C57.9016 24.4004 57.9016 24.4004 57.9016 24.4004C31.8016 43.4004 31.8016 43.4004 31.8016 43.4004C6.10156 24.0004 6.10156 24.0004 6.10156 24.0004L31.8016 5.00039ZM38.0016 41.8004C59.1016 26.3004 59.1016 26.3004 59.1016 26.3004C59.1016 58.1004 59.1016 58.1004 59.1016 58.1004L38.0016 41.8004ZM5.30156 26.3004C25.7016 41.8004 25.7016 41.8004 25.7016 41.8004C5.30156 58.1004 5.30156 58.1004 5.30156 58.1004V26.3004ZM7.60156 59.3004C27.6016 43.4004 27.6016 43.4004 27.6016 43.4004C31.1016 45.7004 31.1016 45.7004 31.1016 45.7004C31.9016 46.5004 32.3016 46.1004 32.6016 45.7004C36.1016 43.4004 36.1016 43.4004 36.1016 43.4004C56.5016 59.3004 56.5016 59.3004 56.5016 59.3004H7.60156ZM60.2016 23.2004C32.6016 2.70039 32.6016 2.70039 32.6016 2.70039C32.2016 2.30039 31.4016 2.30039 31.1016 2.70039C3.40156 23.2004 3.40156 23.2004 3.40156 23.2004C2.60156 23.6004 2.60156 24.0004 2.60156 24.4004C2.60156 60.5004 2.60156 60.5004 2.60156 60.5004C2.60156 61.3004 3.40156 61.7004 3.80156 61.7004C4.20156 61.7004 4.20156 61.7004 4.20156 61.7004C59.9016 61.7004 59.9016 61.7004 59.9016 61.7004C60.3016 61.7004 60.3016 61.7004 60.3016 61.7004C60.7016 61.7004 61.5016 61.3004 61.5016 60.5004C61.5016 24.8004 61.5016 24.8004 61.5016 24.8004C61.4016 24.0004 61.4016 23.6004 60.2016 23.2004Z" fill="#666666"/>
</svg>