<svg xmlns="http://www.w3.org/2000/svg" width="64" height="64" viewBox="0 0 64 64" fill="none" class="injected-svg" data-src="../../assets/svgIcons/4bfe52beee02.svg" xmlns:xlink="http://www.w3.org/1999/xlink" role="img">
<path fill-rule="evenodd" clip-rule="evenodd" d="M9.59922 39.1992C5.39922 39.1992 5.39922 39.1992 5.39922 39.1992C5.39922 28.6992 5.39922 28.6992 5.39922 28.6992C9.59922 28.6992 9.59922 28.6992 9.59922 28.6992C9.59922 39.1992 9.59922 39.1992 9.59922 39.1992ZM11.8992 25.9992C2.69922 25.9992 2.69922 25.9992 2.69922 25.9992C2.69922 41.4992 2.69922 41.4992 2.69922 41.4992C11.8992 41.4992 11.8992 41.4992 11.8992 41.4992V25.9992ZM58.9992 44.1992C57.7992 44.1992 57.7992 44.1992 57.7992 44.1992C56.5992 41.8992 54.3992 40.2992 51.6992 40.2992C48.9992 40.2992 46.6992 41.7992 45.5992 44.1992C40.5992 44.1992 40.5992 44.1992 40.5992 44.1992C40.5992 34.4992 40.5992 34.4992 40.5992 34.4992C58.9992 34.4992 58.9992 34.4992 58.9992 34.4992C58.9992 44.1992 58.9992 44.1992 58.9992 44.1992ZM51.6992 51.4992C49.3992 51.4992 47.4992 49.5992 47.4992 47.1992C47.4992 44.8992 49.3992 42.5992 51.6992 42.5992C53.9992 42.5992 55.8992 44.8992 55.8992 47.1992C55.8992 49.5992 53.9992 51.4992 51.6992 51.4992ZM38.2992 44.1992C35.9992 44.1992 35.9992 44.1992 35.9992 44.1992C34.7992 41.8992 32.5992 40.2992 29.8992 40.2992C27.1992 40.2992 24.8992 41.7992 23.7992 44.1992C21.4992 44.1992 21.4992 44.1992 21.4992 44.1992C21.4992 37.5992 21.4992 37.5992 21.4992 37.5992C29.1992 15.4992 29.1992 15.4992 29.1992 15.4992C38.3992 15.4992 38.3992 15.4992 38.3992 15.4992C38.3992 32.0992 38.3992 32.0992 38.3992 32.0992L38.2992 44.1992ZM29.8992 51.4992C27.5992 51.4992 25.2992 49.5992 25.2992 47.1992C25.2992 44.8992 27.5992 42.5992 29.8992 42.5992C32.1992 42.5992 34.0992 44.8992 34.0992 47.1992C34.0992 49.5992 32.1992 51.4992 29.8992 51.4992ZM61.2992 32.1992C40.5992 32.1992 40.5992 32.1992 40.5992 32.1992C40.5992 12.7992 40.5992 12.7992 40.5992 12.7992C27.1992 12.7992 27.1992 12.7992 27.1992 12.7992C18.7992 37.1992 18.7992 37.1992 18.7992 37.1992C18.7992 40.2992 18.7992 40.2992 18.7992 40.2992C17.2992 40.2992 17.2992 40.2992 17.2992 40.2992C17.2992 9.69922 17.2992 9.69922 17.2992 9.69922C14.5992 9.69922 14.5992 9.69922 14.5992 9.69922C14.5992 44.0992 14.5992 44.0992 14.5992 44.0992C3.09922 44.0992 3.09922 44.0992 3.09922 44.0992C3.09922 46.3992 3.09922 46.3992 3.09922 46.3992C17.2992 46.3992 17.2992 46.3992 17.2992 46.3992C17.2992 42.4992 17.2992 42.4992 17.2992 42.4992C18.7992 42.4992 18.7992 42.4992 18.7992 42.4992C18.7992 46.3992 18.7992 46.3992 18.7992 46.3992C22.9992 46.3992 22.9992 46.3992 22.9992 46.3992C22.9992 46.7992 22.9992 46.7992 22.9992 47.1992C22.9992 51.0992 26.0992 54.1992 29.8992 54.1992C33.2992 54.1992 36.7992 51.0992 36.7992 47.1992C36.7992 46.7992 36.7992 46.7992 36.7992 46.3992C44.7992 46.3992 44.7992 46.3992 44.7992 46.3992C44.7992 46.7992 44.7992 46.7992 44.7992 47.1992C44.7992 51.0992 47.8992 54.1992 51.6992 54.1992C55.4992 54.1992 58.5992 51.0992 58.5992 47.1992C58.5992 46.7992 58.5992 46.7992 58.5992 46.3992C61.2992 46.3992 61.2992 46.3992 61.2992 46.3992V32.1992Z" fill="#ffffff"/>
</svg>