<svg xmlns="http://www.w3.org/2000/svg" width="64" height="64" viewBox="0 0 64 64" fill="none" class="injected-svg" data-src="../../assets/svgIcons/06a77ce81883.svg" xmlns:xlink="http://www.w3.org/1999/xlink" role="img">
<path fill-rule="evenodd" clip-rule="evenodd" d="M32.9992 60.6992C17.4992 60.6992 4.59922 47.6992 4.59922 31.9992C4.59922 22.7992 9.09922 14.3992 15.9992 9.39922C15.9992 9.79922 16.3992 10.1992 16.3992 10.5992C18.6992 15.1992 20.8992 20.8992 25.0992 22.4992C26.1992 22.8992 27.3992 22.8992 28.0992 23.2992C29.1992 23.2992 29.9992 23.6992 31.0992 24.0992H31.4992C31.8992 24.8992 31.8992 25.5992 31.8992 26.3992C31.8992 27.1992 32.2992 28.2992 32.9992 28.6992C33.3992 29.0992 33.7992 29.4992 33.7992 29.7992C32.2992 33.5992 33.3992 38.1992 37.1992 40.8992C37.9992 41.6992 38.2992 43.9992 35.2992 49.6992C34.4992 50.4992 34.8992 51.5992 35.6992 52.7992C36.0992 53.1992 36.7992 53.5992 37.5992 53.5992C37.9992 53.5992 37.9992 53.5992 38.3992 53.5992C40.6992 52.7992 42.5992 51.6992 44.3992 49.7992C45.8992 48.2992 46.9992 47.0992 47.7992 45.5992C48.8992 44.4992 49.6992 43.2992 50.7992 42.1992C51.1992 42.1992 51.1992 41.7992 51.5992 41.7992C51.5992 41.3992 51.5992 40.9992 51.9992 40.6992C52.7992 37.5992 54.5992 33.7992 51.5992 32.2992C50.7992 31.4992 50.0992 30.3992 49.2992 29.1992C48.4992 27.9992 47.7992 26.4992 46.6992 25.7992C46.2992 25.3992 45.8992 24.9992 45.1992 24.9992C44.3992 24.9992 43.6992 24.5992 42.8992 24.1992C41.7992 23.3992 40.5992 22.9992 39.0992 24.1992C38.6992 24.1992 38.2992 24.5992 37.9992 24.1992C37.5992 24.1992 37.5992 23.7992 37.1992 23.3992C37.1992 22.5992 36.7992 21.8992 35.2992 21.4992C35.2992 21.4992 35.2992 21.4992 35.2992 21.0992C34.8992 21.0992 34.8992 21.0992 35.2992 21.0992C35.2992 20.2992 35.2992 19.8992 34.8992 19.5992C34.4992 19.1992 33.7992 18.7992 32.9992 18.7992C32.9992 18.7992 32.9992 18.3992 32.5992 18.3992C32.1992 17.5992 32.1992 17.5992 32.1992 17.5992C31.3992 17.9992 31.3992 17.9992 31.3992 17.9992C30.9992 18.3992 30.9992 18.3992 30.5992 17.9992C30.1992 17.9992 30.1992 17.5992 30.1992 17.1992C30.1992 16.7992 30.1992 16.7992 30.1992 16.3992C30.1992 16.3992 30.9992 16.3992 31.6992 16.3992C32.0992 16.3992 32.0992 16.3992 32.0992 16.3992C32.4992 16.3992 32.4992 16.3992 32.4992 16.3992C33.2992 15.5992 33.9992 15.5992 34.3992 15.9992C34.3992 15.9992 34.7992 16.3992 34.7992 17.8992C34.7992 19.0992 34.7992 19.0992 34.7992 19.0992C35.5992 19.0992 35.5992 19.0992 35.5992 19.0992C36.6992 19.0992 37.8992 19.0992 38.1992 18.2992C38.5992 17.4992 38.9992 16.7992 38.5992 15.5992C38.5992 15.1992 38.5992 15.1992 38.5992 14.7992C41.1992 11.3992 43.8992 9.39922 48.0992 7.89922C55.9992 13.2992 61.2992 22.0992 61.2992 31.9992C61.2992 47.6992 48.4992 60.6992 32.9992 60.6992ZM17.7992 7.89922C18.1992 7.49922 18.5992 7.49922 18.8992 7.09922C18.8992 7.09922 19.2992 7.09922 19.2992 6.69922C20.0992 6.69922 20.3992 6.29922 20.7992 6.29922C21.2992 5.99922 21.2992 5.99922 21.5992 5.99922C21.9992 5.59922 22.3992 5.59922 22.6992 5.59922C22.6992 5.19922 23.0992 5.19922 23.0992 5.19922C23.4992 4.79922 24.1992 4.79922 24.5992 4.79922C24.9992 4.49922 24.9992 4.49922 25.3992 4.49922C25.7992 4.49922 26.1992 4.49922 26.4992 4.09922H26.8992C27.6992 4.09922 27.9992 3.69922 28.7992 3.69922H29.1992C29.5992 3.69922 30.2992 3.69922 30.6992 3.69922H31.0992C31.8992 3.29922 32.1992 3.29922 32.9992 3.29922C33.3992 3.29922 34.0992 3.29922 34.4992 3.29922C34.8992 3.29922 34.8992 3.69922 34.8992 3.69922C35.2992 3.69922 35.6992 3.69922 35.9992 3.69922C36.3992 3.69922 36.3992 3.69922 36.7992 3.69922C37.1992 3.69922 37.5992 3.69922 37.8992 3.69922C37.8992 4.09922 38.2992 4.09922 38.2992 4.09922C38.6992 4.09922 39.0992 4.09922 39.3992 4.09922C39.3992 4.09922 39.7992 4.09922 39.7992 4.49922C40.1992 4.49922 40.8992 4.49922 41.2992 4.89922C41.6992 4.89922 42.3992 5.29922 42.7992 5.29922C42.7992 5.29922 43.1992 5.29922 43.1992 5.69922C43.5992 5.69922 43.9992 5.69922 44.2992 5.69922C44.2992 5.99922 44.6992 5.99922 45.0992 5.99922C45.0992 6.39922 45.4992 6.39922 45.4992 6.39922C45.8992 6.39922 45.8992 6.79922 45.8992 6.79922C42.0992 8.29922 39.8992 10.1992 37.1992 13.6992C36.7992 14.0992 36.3992 14.7992 36.3992 15.5992C36.3992 14.7992 35.9992 14.3992 35.5992 14.0992C34.4992 13.6992 33.2992 13.6992 31.7992 14.4992C31.3992 14.4992 31.3992 14.4992 31.3992 14.4992C29.4992 14.4992 28.3992 14.8992 27.9992 16.7992C27.9992 17.8992 28.7992 19.0992 29.4992 19.8992C29.8992 19.8992 30.2992 19.8992 30.2992 20.2992C30.6992 20.2992 30.6992 20.2992 30.6992 20.2992C31.0992 21.0992 31.0992 21.0992 31.0992 21.0992C31.8992 21.0992 31.8992 21.0992 31.8992 21.0992C32.2992 20.6992 32.6992 20.6992 32.9992 20.6992C32.9992 21.4992 32.9992 21.7992 33.3992 22.1992C33.7992 22.5992 34.1992 22.9992 34.4992 23.2992C35.2992 23.2992 35.2992 23.6992 35.2992 23.6992C35.6992 24.7992 36.3992 25.9992 37.5992 25.9992C38.3992 26.3992 39.4992 26.3992 40.1992 25.5992C40.5992 25.1992 40.9992 25.1992 42.0992 25.9992C42.8992 26.3992 43.5992 26.7992 45.0992 26.7992C45.0992 26.7992 45.0992 26.7992 45.4992 26.7992C46.2992 27.8992 46.5992 29.0992 47.3992 29.8992C48.1992 31.3992 49.2992 32.9992 50.7992 34.0992C51.8992 34.4992 50.3992 37.8992 49.9992 39.7992C49.5992 40.1992 49.5992 40.1992 49.5992 40.5992C48.0992 41.6992 46.9992 43.2992 46.1992 44.3992C45.3992 45.4992 44.2992 47.0992 43.1992 48.1992C41.2992 49.6992 39.3992 50.8992 37.4992 51.5992C37.0992 51.5992 37.0992 51.1992 37.0992 51.1992C36.6992 51.1992 36.6992 50.7992 37.0992 50.7992C38.9992 46.9992 41.2992 41.9992 38.1992 39.2992C35.1992 36.9992 33.9992 33.5992 35.5992 30.4992C35.9992 28.9992 35.1992 27.7992 34.0992 27.0992C34.0992 26.6992 34.0992 26.2992 33.6992 25.9992C33.6992 25.1992 33.6992 24.0992 32.8992 22.8992C32.4992 22.4992 32.0992 22.0992 31.7992 22.0992C30.6992 21.2992 29.4992 21.2992 28.3992 21.2992C27.2992 20.8992 26.4992 20.8992 25.7992 20.4992C22.3992 19.2992 20.0992 13.5992 18.1992 9.79922C18.1992 8.99922 17.7992 8.69922 17.3992 7.89922C17.7992 7.89922 17.7992 7.89922 17.7992 7.89922ZM49.9992 6.79922C48.8992 5.99922 48.8992 5.99922 48.8992 5.99922C48.8992 5.99922 48.8992 5.99922 48.4992 5.99922C48.0992 5.59922 47.6992 5.19922 47.3992 5.19922C46.9992 4.79922 46.9992 4.79922 46.5992 4.79922C46.1992 4.39922 45.7992 4.39922 45.4992 3.99922H45.0992C44.2992 3.59922 43.9992 3.19922 43.1992 3.19922C43.1992 3.19922 43.1992 3.19922 42.7992 2.79922C42.3992 2.79922 41.9992 2.79922 41.2992 2.39922C41.2992 2.39922 41.2992 2.39922 40.8992 2.39922C40.4992 1.99922 39.7992 1.99922 39.3992 1.99922C39.3992 1.99922 39.3992 1.99922 38.9992 1.99922C38.5992 1.59922 37.8992 1.59922 37.0992 1.59922C37.0992 1.59922 37.0992 1.59922 36.6992 1.59922C36.2992 1.59922 35.8992 1.19922 35.1992 1.19922H34.7992C33.9992 1.19922 33.6992 1.19922 32.8992 1.19922C32.0992 1.19922 31.3992 1.19922 30.9992 1.19922C30.5992 1.19922 30.5992 1.19922 30.1992 1.19922C29.7992 1.19922 29.0992 1.59922 28.2992 1.59922C27.4992 1.59922 26.7992 1.99922 26.3992 1.99922C25.9992 1.99922 25.9992 1.99922 25.5992 1.99922C25.1992 2.39922 24.4992 2.39922 24.0992 2.39922C23.6992 2.79922 23.6992 2.79922 23.2992 2.79922C22.8992 2.79922 22.4992 3.19922 21.7992 3.19922C21.7992 3.59922 21.3992 3.59922 21.3992 3.59922C20.5992 3.99922 20.2992 3.99922 19.4992 4.39922C19.4992 4.39922 19.0992 4.39922 19.0992 4.79922C18.6992 4.79922 18.2992 5.19922 17.9992 5.19922C17.5992 5.59922 17.5992 5.59922 17.1992 5.59922C17.0992 5.99922 16.2992 6.39922 15.9992 6.79922C15.9992 6.79922 15.9992 6.79922 15.5992 6.79922C15.1992 7.19922 15.1992 7.19922 15.1992 7.19922C7.59922 12.8992 2.69922 21.6992 2.69922 31.9992C2.69922 48.7992 16.2992 62.5992 32.9992 62.5992C49.6992 62.5992 63.1992 48.7992 63.1992 31.9992C63.1992 21.6992 57.8992 12.4992 49.9992 6.79922Z" fill="#ffffff"/>
</svg>