<svg xmlns="http://www.w3.org/2000/svg" width="64" height="64" viewBox="0 0 64 64" fill="none" class="injected-svg" data-src="../../assets/svgIcons/90a89b806ee4.svg" xmlns:xlink="http://www.w3.org/1999/xlink" role="img">
<path fill-rule="evenodd" clip-rule="evenodd" d="M50.0992 16.0992C57.3992 31.0992 57.3992 31.0992 57.3992 31.0992C52.4992 33.1992 52.4992 33.1992 52.4992 33.1992C45.1992 18.4992 45.1992 18.4992 45.1992 18.4992L50.0992 16.0992ZM50.7992 34.5992C48.3992 36.6992 48.3992 36.6992 48.3992 36.6992C46.2992 38.7992 43.4992 40.4992 41.0992 41.8992C27.8992 48.1992 27.8992 48.1992 27.8992 48.1992C27.5992 48.5992 26.8992 48.1992 26.4992 47.4992C26.0992 47.1992 26.4992 46.4992 26.7992 46.0992C27.0992 46.0992 27.0992 46.0992 27.0992 46.0992C34.0992 42.5992 34.0992 42.5992 34.0992 42.5992C34.7992 42.2992 34.7992 41.5992 34.7992 41.1992C34.3992 40.4992 33.7992 40.4992 33.3992 40.4992C26.0992 43.9992 26.0992 43.9992 26.0992 43.9992C22.5992 45.7992 22.5992 45.7992 22.5992 45.7992C21.8992 46.0992 21.1992 46.0992 21.1992 45.3992C20.8992 45.0992 20.8992 44.6992 20.8992 44.3992C21.1992 44.3992 21.1992 43.9992 21.5992 43.6992C24.3992 42.5992 24.3992 42.5992 24.3992 42.5992C31.9992 38.7992 31.9992 38.7992 31.9992 38.7992C32.2992 38.3992 32.6992 37.7992 32.2992 37.3992C32.2992 36.6992 31.5992 36.6992 30.8992 37.0992C23.2992 40.5992 23.2992 40.5992 23.2992 40.5992C22.9992 40.8992 22.9992 40.8992 22.9992 40.8992C19.4992 42.5992 19.4992 42.5992 19.4992 42.5992C19.1992 42.5992 18.7992 42.5992 18.4992 42.5992C18.1992 42.5992 18.1992 42.2992 17.7992 42.2992C17.7992 41.5992 17.7992 40.8992 18.4992 40.4992C19.8992 39.7992 19.8992 39.7992 19.8992 39.7992C22.2992 38.7992 22.2992 38.7992 22.2992 38.7992C22.9992 38.3992 22.9992 38.3992 22.9992 38.3992C28.8992 35.2992 28.8992 35.2992 28.8992 35.2992C29.5992 34.9992 29.5992 34.5992 29.5992 33.8992C29.1992 33.5992 28.5992 33.1992 28.1992 33.5992C21.5992 36.6992 21.5992 36.6992 21.5992 36.6992C18.7992 38.0992 18.7992 38.0992 18.7992 38.0992C18.0992 38.3992 17.3992 38.0992 17.3992 37.3992C17.0992 37.3992 17.0992 37.0992 17.0992 36.6992C17.3992 36.3992 17.3992 35.9992 17.7992 35.9992C22.6992 33.5992 22.6992 33.5992 22.6992 33.5992C23.3992 33.1992 23.3992 32.8992 23.3992 32.1992C23.0992 31.7992 22.3992 31.4992 21.9992 31.7992C16.9992 34.2992 16.9992 34.2992 16.9992 34.2992C15.9992 34.5992 15.5992 35.2992 15.2992 35.9992C14.9992 36.6992 14.9992 37.7992 15.2992 38.3992C15.6992 38.7992 15.9992 39.4992 16.2992 39.4992C15.5992 40.4992 15.5992 41.8992 15.9992 42.9992C16.2992 43.6992 16.9992 44.3992 17.6992 44.6992C17.9992 44.6992 18.3992 44.6992 18.6992 44.6992C18.6992 45.3992 18.9992 45.7992 18.9992 46.4992C19.6992 47.4992 20.6992 48.1992 22.0992 48.1992C22.3992 48.1992 22.7992 47.8992 23.4992 47.8992C24.1992 47.4992 24.1992 47.4992 24.1992 47.4992C24.1992 47.8992 24.1992 48.1992 24.4992 48.5992C24.7992 49.5992 26.1992 50.2992 27.2992 50.2992C27.5992 50.2992 28.2992 50.2992 28.6992 49.9992C41.5992 43.6992 41.5992 43.6992 41.5992 43.6992C44.6992 42.2992 47.1992 40.5992 49.5992 38.0992C52.3992 35.6992 52.3992 35.6992 52.3992 35.6992C58.9992 32.1992 58.9992 32.1992 58.9992 32.1992C59.6992 32.1992 59.6992 31.4992 59.6992 30.7992C51.3992 14.3992 51.3992 14.3992 51.3992 14.3992C51.3992 13.9992 51.0992 13.9992 51.0992 13.6992C50.7992 13.6992 50.3992 13.6992 50.0992 13.9992C43.4992 17.0992 43.4992 17.0992 43.4992 17.0992C43.0992 17.3992 42.7992 18.0992 43.0992 18.4992L50.7992 34.5992ZM11.7992 33.1992C6.59922 31.4992 6.59922 31.4992 6.59922 31.4992C11.7992 16.0992 11.7992 16.0992 11.7992 16.0992C16.9992 17.8992 16.9992 17.8992 16.9992 17.8992L11.7992 33.1992ZM23.6992 16.0992C22.9992 16.4992 22.9992 16.4992 22.9992 16.4992C21.9992 16.7992 20.8992 17.1992 20.1992 16.7992C18.7992 16.0992 18.7992 16.0992 18.7992 16.0992C11.4992 13.6992 11.4992 13.6992 11.4992 13.6992C11.0992 13.6992 10.4992 13.6992 10.0992 14.3992C4.19922 31.7992 4.19922 31.7992 4.19922 31.7992C4.19922 32.1992 4.19922 32.4992 4.19922 32.4992C4.49922 32.8992 4.49922 33.1992 4.89922 33.1992C11.8992 35.5992 11.8992 35.5992 11.8992 35.5992C12.1992 35.5992 12.1992 35.5992 12.1992 35.5992C12.8992 35.5992 13.1992 35.1992 13.1992 34.8992C18.7992 18.4992 18.7992 18.4992 18.7992 18.4992C19.4992 18.4992 19.4992 18.4992 19.4992 18.4992C20.8992 19.1992 22.2992 18.7992 23.6992 18.4992C24.3992 18.0992 24.3992 18.0992 24.3992 18.0992C25.3992 17.3992 26.0992 17.3992 27.1992 17.7992C40.3992 22.2992 40.3992 22.2992 40.3992 22.2992C39.9992 22.9992 39.6992 23.3992 39.3992 23.6992C38.6992 24.3992 37.9992 24.3992 36.9992 23.6992C30.9992 22.0992 30.9992 22.0992 30.9992 22.0992C30.6992 21.6992 30.6992 22.0992 30.2992 22.0992C29.9992 22.0992 29.9992 22.3992 29.5992 22.7992C29.5992 22.7992 28.8992 25.8992 26.4992 27.2992C24.7992 27.9992 22.6992 27.9992 20.1992 27.2992C19.8992 26.8992 19.1992 27.2992 19.1992 27.9992C18.8992 28.2992 19.1992 28.9992 19.4992 28.9992C20.8992 29.6992 22.2992 29.6992 23.2992 29.6992C24.6992 29.6992 26.0992 29.6992 27.0992 28.9992C29.4992 27.5992 30.5992 25.4992 31.2992 24.0992C36.1992 25.7992 36.1992 25.7992 36.1992 25.7992C37.8992 26.4992 39.2992 26.4992 40.3992 25.4992C42.4992 24.3992 42.4992 21.6992 42.4992 21.6992C42.4992 21.3992 42.0992 20.9992 41.7992 20.6992C27.8992 15.7992 27.8992 15.7992 27.8992 15.7992C26.3992 15.3992 24.6992 15.3992 23.6992 16.0992Z" fill="#ffffff"/>
</svg>