<svg xmlns="http://www.w3.org/2000/svg" width="64" height="64" viewBox="0 0 64 64" fill="none" class="injected-svg" data-src="../../assets/svgIcons/1168b2408d16.svg" xmlns:xlink="http://www.w3.org/1999/xlink" role="img">
<path fill-rule="evenodd" clip-rule="evenodd" d="M58.7 50.7992C56 50.7992 56 50.7992 56 50.7992C55.6 48.0992 52.9 45.7992 49.9 45.7992C46.9 45.7992 44.1 48.0992 43.4 50.7992C20.7 50.7992 20.7 50.7992 20.7 50.7992C19.9 48.0992 17.6 45.7992 14.2 45.7992C11.1 45.7992 8.4 48.0992 8.1 50.7992C5.4 50.7992 5.4 50.7992 5.4 50.7992C5.4 44.5992 5.4 44.5992 5.4 44.5992C58.8 44.5992 58.8 44.5992 58.8 44.5992C58.7 50.7992 58.7 50.7992 58.7 50.7992ZM49.9 56.5992C47.6 56.5992 45.7 54.6992 45.7 52.2992C45.7 49.8992 47.6 48.3992 49.9 48.3992C52.2 48.3992 53.7 49.9992 53.7 52.2992C53.7 54.5992 52.2 56.5992 49.9 56.5992ZM14.1 56.5992C12.2 56.5992 10.3 54.6992 10.3 52.2992C10.3 49.8992 12.2 48.3992 14.1 48.3992C16.4 48.3992 18.3 49.9992 18.3 52.2992C18.4 54.5992 16.4 56.5992 14.1 56.5992ZM40.3 13.5992C49.1 13.5992 49.1 13.5992 49.1 13.5992C57.2 26.3992 57.2 26.3992 57.2 26.3992C57.2 42.2992 57.2 42.2992 57.2 42.2992C40.3 42.2992 40.3 42.2992 40.3 42.2992V13.5992ZM5.3 15.1992C32.6 15.1992 32.6 15.1992 32.6 15.1992C32.6 42.2992 32.6 42.2992 32.6 42.2992C5.3 42.2992 5.3 42.2992 5.3 42.2992V15.1992ZM61.4 42.2992C59.5 42.2992 59.5 42.2992 59.5 42.2992C59.5 25.2992 59.5 25.2992 59.5 25.2992C50.3 10.9992 50.3 10.9992 50.3 10.9992C37.6 10.9992 37.6 10.9992 37.6 10.9992C37.6 42.3992 37.6 42.3992 37.6 42.3992C34.9 42.3992 34.9 42.3992 34.9 42.3992C34.9 9.89922 34.9 9.89922 34.9 9.89922C41.4 6.99922 41.4 6.99922 41.4 6.99922C40.2 4.69922 40.2 4.69922 40.2 4.69922C32.1 8.19922 32.1 8.19922 32.1 8.19922C32.1 12.8992 32.1 12.8992 32.1 12.8992C2.5 12.8992 2.5 12.8992 2.5 12.8992C2.5 53.5992 2.5 53.5992 2.5 53.5992C7.9 53.5992 7.9 53.5992 7.9 53.5992C8.3 56.6992 11 59.3992 14.4 59.3992C17.5 59.3992 20.2 56.6992 20.9 53.5992C43.2 53.5992 43.2 53.5992 43.2 53.5992C43.6 56.6992 46.3 58.9992 49.7 58.9992C53.2 58.9992 55.8 56.6992 56.2 53.5992C61.2 53.5992 61.2 53.5992 61.2 53.5992L61.4 42.2992ZM50.6 24.7992C44.5 24.7992 44.5 24.7992 44.5 24.7992C44.5 17.7992 44.5 17.7992 44.5 17.7992C46.8 17.7992 46.8 17.7992 46.8 17.7992C50.6 23.5992 50.6 23.5992 50.6 23.5992V24.7992ZM42.2 15.4992C42.2 27.4992 42.2 27.4992 42.2 27.4992C53.3 27.4992 53.3 27.4992 53.3 27.4992C53.3 23.1992 53.3 23.1992 53.3 23.1992C48.3 15.4992 48.3 15.4992 48.3 15.4992C42.2 15.4992 42.2 15.4992 42.2 15.4992Z" fill="#6a6a6a"/>
</svg>