<svg xmlns="http://www.w3.org/2000/svg" width="64" height="64" viewBox="0 0 64 64" fill="none" class="injected-svg" data-src="../../assets/svgIcons/d55b48002eab.svg" xmlns:xlink="http://www.w3.org/1999/xlink" role="img">
<path fill-rule="evenodd" clip-rule="evenodd" d="M61.8996 53.5008C61.8996 58.0008 51.7996 62.2008 31.9996 62.2008C12.1996 62.2008 2.09961 58.0008 2.09961 53.5008C2.09961 49.7008 9.59961 46.3008 19.9996 45.2008C20.3996 45.2008 20.6996 45.6008 21.0996 46.0008C21.0996 46.4008 20.6996 47.1008 19.9996 47.1008C9.59961 48.2008 3.99961 51.6008 3.99961 53.5008C3.99961 56.5008 14.7996 60.3008 31.9996 60.3008C49.1996 60.3008 59.9996 56.5008 59.9996 53.5008C59.9996 51.6008 54.3996 48.2008 43.8996 47.1008C43.1996 47.1008 42.7996 46.3008 42.7996 46.0008C43.1996 45.6008 43.4996 45.2008 43.8996 45.2008C54.3996 46.3008 61.8996 49.7008 61.8996 53.5008ZM19.6996 9.00078C22.9996 5.60078 27.0996 3.70078 31.9996 3.70078C36.4996 3.70078 40.5996 5.60078 43.9996 9.00078C49.9996 15.0008 50.6996 26.3008 45.4996 33.5008C31.9996 53.5008 31.9996 53.5008 31.9996 53.5008C18.1996 33.5008 18.1996 33.5008 18.1996 33.5008C12.8996 26.3008 13.6996 15.0008 19.6996 9.00078ZM31.9996 56.9008C46.9996 34.7008 46.9996 34.7008 46.9996 34.7008C52.9996 26.8008 52.1996 14.3008 45.4996 7.60078C41.6996 3.70078 36.8996 1.80078 31.9996 1.80078C26.7996 1.80078 21.8996 3.70078 18.1996 7.50078C11.4996 14.3008 10.6996 26.7008 16.6996 34.6008L31.9996 56.9008ZM31.9996 15.8008C34.5996 15.8008 36.8996 18.1008 36.8996 21.1008C36.8996 23.7008 34.6996 26.0008 31.9996 26.0008C29.2996 26.0008 27.0996 23.7008 27.0996 21.1008C27.0996 18.1008 29.3996 15.8008 31.9996 15.8008ZM31.9996 27.9008C35.6996 27.9008 39.0996 24.9008 39.0996 21.1008C39.0996 17.0008 35.6996 13.9008 31.9996 13.9008C28.2996 13.9008 24.8996 16.9008 24.8996 21.1008C24.8996 24.8008 28.2996 27.9008 31.9996 27.9008Z" fill="#549abb"/>
</svg>