<svg xmlns="http://www.w3.org/2000/svg" width="64" height="64" viewBox="0 0 64 64" fill="none" class="injected-svg" data-src="../../assets/svgIcons/fea5f7b815bc.svg" xmlns:xlink="http://www.w3.org/1999/xlink" role="img">
<path fill-rule="evenodd" clip-rule="evenodd" d="M12.9 55.4004C13.3 55.4004 13.3 55.4004 13.7 55.4004C14.1 55.8004 14.1 55.8004 14.5 55.8004C14.9 55.8004 15.2 55.8004 15.6 55.4004C16.4 55.4004 16.7 55.0004 16.4 54.3004C16.4 53.9004 16 53.2004 15.3 53.5004C14.9 53.5004 14.6 53.5004 14.2 53.5004C13.8 53.5004 13.8 53.5004 13.8 53.5004C13 53.1004 12.3 53.5004 12.3 54.3004C12.1 54.7004 12.5 55.4004 12.9 55.4004ZM13.2 46.7004H13.6C14 46.7004 14.4 46.3004 14.7 46.3004H15.1C15.9 46.3004 16.2 45.9004 16.2 45.5004C16.2 44.7004 15.8 44.4004 15.4 44.0004C15 44.0004 14.7 44.0004 14.3 44.0004C13.5 44.4004 13.2 44.4004 12.4 44.8004C12 45.2004 11.6 45.6004 12 46.3004C12.5 46.7004 12.9 46.7004 13.2 46.7004ZM21.1 51.3004C20.3 51.7004 19.6 52.1004 19.2 52.4004C18.5 52.4004 18.1 53.2004 18.5 53.5004C18.5 54.3004 19.2 54.3004 19.6 54.3004C19.6 54.3004 19.6 54.3004 20 54.3004C20.8 53.9004 21.1 53.9004 21.9 53.5004C22.6 53.1004 22.6 52.4004 22.6 52.0004C22.2 51.3004 21.5 51.3004 21.1 51.3004ZM53 37.7004C52.6 38.5004 53 39.2004 53.8 39.2004C53.8 39.2004 53.8 39.2004 54.2 39.2004C54.6 39.2004 55 38.8004 55 38.4004C55.4 38.0004 55.4 37.6004 55.4 37.3004C55.4 36.5004 55.4 36.2004 55 35.8004C55 35.0004 54.2 34.7004 53.5 35.0004C53.1 35.0004 52.7 35.8004 53.1 36.5004C53.1 36.5004 53.1 36.9004 53.1 37.3004V37.7004H53ZM50.8 32.4004C50 32.4004 48.9 32.4004 48.2 32.4004C47.8 32.8004 47.4 33.5004 47.4 33.9004C47.4 34.3004 48.2 34.7004 48.5 34.7004C48.5 34.7004 48.5 34.7004 48.9 34.7004C49.3 34.7004 50 34.7004 50.4 34.7004C51.2 34.7004 51.5 34.3004 51.5 33.6004C51.9 33.1004 51.5 32.4004 50.8 32.4004ZM11.7 49.4004C11.7 49.0004 11.3 48.3004 11 48.3004C10.2 47.9004 9.9 48.3004 9.5 49.1004C9.5 49.5004 9.5 50.2004 9.5 50.6004C9.1 50.6004 9.1 51.0004 9.1 51.0004C9.1 51.0004 9.5 51.4004 9.5 51.8004C9.5 52.2004 9.9 52.6004 10.3 52.6004C10.7 52.6004 10.7 52.6004 10.7 52.6004C11.1 52.6004 11.8 52.2004 11.4 51.5004V51.1004V50.7004C11.4 50.1004 11.7 49.7004 11.7 49.4004ZM50.8 41.1004C50.4 41.1004 50 41.5004 49.3 41.5004C48.9 41.5004 48.6 42.3004 48.6 43.0004C48.6 43.4004 49 43.8004 49.7 43.8004C50.8 43.4004 51.6 43.0004 52 42.7004C52.4 42.7004 52.4 42.7004 52.4 42.7004C52.8 42.3004 52.8 41.6004 52.4 41.2004C52 40.8004 51.6 40.4004 50.9 40.8004L50.8 41.1004ZM26.4 48.2004C26 48.6004 25.3 49.0004 24.9 49.3004C24.1 49.7004 24.1 50.4004 24.5 50.8004C24.5 51.2004 24.9 51.2004 25.3 51.2004C25.7 51.2004 25.7 51.2004 26.1 51.2004C26.5 50.8004 27.2 50.4004 28 49.7004C28.4 49.3004 28.4 48.9004 28 48.2004C27.5 47.9004 27.1 47.9004 26.4 48.2004ZM41.8 43.0004C42.2 43.8004 42.6 44.1004 42.9 44.1004C45.1 44.1004 45.1 44.1004 45.1 44.1004C45.9 44.1004 46.2 43.3004 46.2 43.0004C46.2 42.2004 45.4 41.9004 45.1 41.9004C42.9 41.9004 42.9 41.9004 42.9 41.9004C42.5 41.8004 41.8 42.6004 41.8 43.0004ZM36.1 42.6004C35.7 43.0004 35.3 43.4004 35.3 44.1004C35.3 44.5004 36.1 44.9004 36.4 44.9004C36.4 44.9004 36.4 44.9004 36.8 44.9004C37.2 44.9004 37.9 44.5004 38.7 44.5004C39.5 44.5004 39.8 43.7004 39.8 43.4004C39.4 42.6004 39 42.3004 38.3 42.3004C37.6 42.2004 36.9 42.6004 36.1 42.6004ZM26.4 15.8004C26.4 18.8004 29 21.5004 32.4 21.5004C35.4 21.5004 38 18.9004 38 15.8004C38 12.4004 35.4 9.80039 32.4 9.80039C29 9.70039 26.4 12.4004 26.4 15.8004ZM24.1 15.8004C24.1 11.3004 27.9 7.50039 32.4 7.50039C36.5 7.50039 40.3 11.3004 40.3 15.8004C40.3 20.0004 36.5 23.7004 32.4 23.7004C27.9 23.7004 24.1 19.9004 24.1 15.8004ZM21.9 21.0004C24.5 32.7004 30.1 40.3004 32.4 42.5004C34.3 40.2004 40.3 32.7004 42.5 21.0004C43.3 18.7004 43.3 16.5004 42.9 14.2004C42.1 8.20039 38.8 5.10039 32.4 5.10039C26 5.10039 22.3 8.10039 21.5 14.2004C21.1 16.5004 21.5 18.8004 21.9 21.0004ZM19.6 21.4004C19.2 18.8004 19.2 16.5004 19.2 13.9004C20.3 6.70039 24.8 2.90039 32.3 2.90039C39.8 2.90039 44.3 6.70039 45.1 13.9004C45.5 16.5004 45.5 18.8004 44.7 21.4004C42.1 34.6004 35.3 42.6004 33.4 44.8004C33.4 45.2004 33.4 45.9004 32.6 45.9004C32.2 46.3004 31.8 46.3004 31.5 46.7004L31.1 47.1004C30.7 47.5004 30.7 47.5004 30.3 47.5004C29.9 47.5004 29.6 47.1004 29.6 47.1004C29.2 46.3004 29.2 45.6004 29.6 45.2004C30 45.2004 30.3 45.2004 30.3 44.8004C30.7 44.8004 30.7 44.8004 31.1 44.4004C29 42.6004 22.6 34.6004 19.6 21.4004ZM62 61.1004C2 61.1004 2 61.1004 2 61.1004C6.1 27.1004 6.1 27.1004 6.1 27.1004C18.1 27.1004 18.1 27.1004 18.1 27.1004C18.8 27.1004 19.2 27.5004 19.2 28.2004C19.2 29.0004 18.8 29.3004 18.1 29.3004C8 29.4004 8 29.4004 8 29.4004C4.6 58.8004 4.6 58.8004 4.6 58.8004C59.8 58.8004 59.8 58.8004 59.8 58.8004C56.4 29.3004 56.4 29.3004 56.4 29.3004C46.6 29.3004 46.6 29.3004 46.6 29.3004C45.8 29.3004 45.5 28.9004 45.5 28.2004C45.5 27.4004 45.9 27.1004 46.6 27.1004C58.2 27.1004 58.2 27.1004 58.2 27.1004L62 61.1004Z" fill="#ffffff"/>
</svg>