<svg xmlns="http://www.w3.org/2000/svg" width="64" height="64" viewBox="0 0 64 64" fill="none" class="injected-svg" data-src="../../assets/svgIcons/d918ef00401f.svg" xmlns:xlink="http://www.w3.org/1999/xlink" role="img">
<path fill-rule="evenodd" clip-rule="evenodd" d="M14.4996 14.4008C19.2996 9.60078 25.4996 7.10078 31.9996 7.10078C38.1996 7.10078 43.9996 9.20078 48.4996 13.3008C13.4996 48.6008 13.4996 48.6008 13.4996 48.6008C9.39961 44.1008 7.29961 38.2008 7.29961 32.0008C7.29961 25.4008 9.69961 19.2008 14.4996 14.4008ZM49.4996 49.6008C44.6996 54.4008 38.4996 56.9008 31.9996 56.9008C25.7996 56.9008 19.9996 54.8008 15.4996 50.7008C50.4996 15.4008 50.4996 15.4008 50.4996 15.4008C54.5996 19.9008 56.6996 25.8008 56.6996 32.0008C56.6996 38.6008 54.2996 44.8008 49.4996 49.6008ZM31.9996 59.7008C39.1996 59.7008 46.0996 56.9008 51.4996 51.7008C56.5996 46.2008 59.3996 39.2008 59.3996 32.0008C59.3996 24.8008 56.6996 17.8008 51.4996 12.3008C45.9996 7.10078 39.1996 4.30078 31.9996 4.30078C24.7996 4.30078 17.8996 7.10078 12.4996 12.3008C7.29961 17.8008 4.59961 24.7008 4.59961 32.0008C4.59961 39.3008 7.29961 46.2008 12.4996 51.7008C17.8996 56.9008 24.7996 59.7008 31.9996 59.7008Z" fill="#5b5b5b"/>
</svg>