<svg xmlns="http://www.w3.org/2000/svg" width="64" height="64" viewBox="0 0 64 64" fill="none" class="injected-svg" data-src="../../assets/svgIcons/29a012fd68d3.svg" xmlns:xlink="http://www.w3.org/1999/xlink" role="img">
<path fill-rule="evenodd" clip-rule="evenodd" d="M53.7984 39.2008C36.9984 43.4008 36.9984 43.4008 36.9984 43.4008C33.1984 27.5008 33.1984 27.5008 33.1984 27.5008C49.9984 22.9008 49.9984 22.9008 49.9984 22.9008L53.7984 39.2008ZM41.5984 9.70078C44.6984 21.7008 44.6984 21.7008 44.6984 21.7008C32.3984 24.8008 32.3984 24.8008 32.3984 24.8008C29.2984 12.8008 29.2984 12.8008 29.2984 12.8008L41.5984 9.70078ZM30.0984 25.6008C35.4984 46.5008 35.4984 46.5008 35.4984 46.5008C56.9984 40.7008 56.9984 40.7008 56.9984 40.7008C51.5984 20.2008 51.5984 20.2008 51.5984 20.2008C47.3984 21.4008 47.3984 21.4008 47.3984 21.4008C43.4984 6.60078 43.4984 6.60078 43.4984 6.60078C26.6984 10.9008 26.6984 10.9008 26.6984 10.9008C30.0984 25.6008 30.0984 25.6008 30.0984 25.6008ZM26.9984 59.3008C23.5984 59.3008 20.8984 56.2008 20.8984 53.1008C20.8984 49.6008 23.5984 46.5008 26.9984 46.5008C30.3984 46.5008 33.0984 49.6008 33.0984 53.1008C33.1984 56.6008 30.4984 59.3008 26.9984 59.3008ZM59.5984 46.5008C59.1984 44.2008 59.1984 44.2008 59.1984 44.2008C35.4984 50.4008 35.4984 50.4008 35.4984 50.4008C34.2984 46.9008 30.8984 44.2008 27.0984 44.2008C26.2984 44.2008 25.1984 44.6008 24.3984 44.6008C16.6984 10.9008 16.6984 10.9008 16.6984 10.9008C5.99844 2.30078 5.99844 2.30078 5.99844 2.30078C4.39844 4.30078 4.39844 4.30078 4.39844 4.30078C14.3984 12.1008 14.3984 12.1008 14.3984 12.1008C21.9984 45.8008 21.9984 45.8008 21.9984 45.8008C19.6984 47.4008 18.1984 50.1008 18.1984 53.2008C18.1984 57.9008 22.3984 61.7008 26.9984 61.7008C31.9984 61.7008 35.3984 57.8008 35.3984 53.2008L59.5984 46.5008Z" fill="#daaa0b"/>
</svg>