<svg xmlns="http://www.w3.org/2000/svg" width="64" height="64" viewBox="0 0 64 64" fill="none" class="injected-svg" data-src="../../assets/svgIcons/62c75c7c4346.svg" xmlns:xlink="http://www.w3.org/1999/xlink" role="img">
<path fill-rule="evenodd" clip-rule="evenodd" d="M33.6016 56.6C33.6016 29.9 33.6016 29.9 33.6016 29.9C43.5016 24.9 43.5016 24.9 43.5016 24.9C43.5016 32 43.5016 32 43.5016 32C43.5016 32.7 44.2016 33.4 44.9016 33.4C46.0016 33.4 46.3016 32.7 46.3016 32C46.3016 23.4 46.3016 23.4 46.3016 23.4C55.1016 19.1 55.1016 19.1 55.1016 19.1C55.1016 46.2 55.1016 46.2 55.1016 46.2L33.6016 56.6ZM8.90156 19.2C30.4016 29.9 30.4016 29.9 30.4016 29.9C30.4016 56.6 30.4016 56.6 30.4016 56.6C8.90156 46.3 8.90156 46.3 8.90156 46.3V19.2ZM32.2016 27.4C10.7016 17 10.7016 17 10.7016 17C20.9016 12 20.9016 12 20.9016 12C42.1016 22.3 42.1016 22.3 42.1016 22.3L32.2016 27.4ZM32.2016 6.7C53.3016 17 53.3016 17 53.3016 17C45.5016 20.9 45.5016 20.9 45.5016 20.9C24.1016 10.3 24.1016 10.3 24.1016 10.3L32.2016 6.7ZM57.9016 17C57.9016 16.6 57.9016 16.6 57.9016 16.3C57.5016 15.9 57.2016 15.6 56.8016 15.6C32.5016 3.5 32.5016 3.5 32.5016 3.5C32.1016 3.5 31.8016 3.5 31.4016 3.5C6.80156 15.6 6.80156 15.6 6.80156 15.6C6.40156 16 6.10156 16.3 6.10156 17C6.10156 46.9 6.10156 46.9 6.10156 46.9C6.10156 47.6 6.50156 48 6.80156 48.3C31.5016 60.4 31.5016 60.4 31.5016 60.4C31.5016 60.4 31.5016 60.4 31.9016 60.4C31.9016 60.4 31.9016 60.4 32.2016 60.4C32.2016 60.4 32.2016 60.4 32.6016 60.4C57.3016 48.3 57.3016 48.3 57.3016 48.3C57.6016 47.9 58.0016 47.6 58.0016 46.9C57.9016 17 57.9016 17 57.9016 17Z" fill="#666666"/>
</svg>