<svg xmlns="http://www.w3.org/2000/svg" width="64" height="64" viewBox="0 0 64 64" fill="none" class="injected-svg" data-src="../../assets/svgIcons/d3f1075bef31.svg" xmlns:xlink="http://www.w3.org/1999/xlink" role="img">
<path fill-rule="evenodd" clip-rule="evenodd" d="M29.1999 9.2C29.1999 6.4 30.8999 6.1 31.9999 6.1C32.9999 6.1 34.7999 6.4 34.7999 9.2C35.0999 9.9 35.0999 12.4 34.0999 13.4C33.3999 14.1 32.6999 14.1 31.9999 14.1C31.2999 14.1 30.5999 14.1 29.8999 13.4C28.8999 12.4 28.8999 9.9 29.1999 9.2ZM31.9999 16.2C33.3999 16.2 34.7999 15.8 35.4999 14.8C37.1999 12.7 36.8999 9.5 36.8999 8.9C36.8999 5.4 34.0999 4 31.9999 4C29.8999 4 27.0999 5.4 27.0999 8.9C27.0999 9.6 26.6999 12.8 28.4999 14.8C29.1999 15.9 30.5999 16.2 31.9999 16.2ZM24.9999 22.5C25.2999 22.1 25.2999 22.1 25.6999 21.8C26.6999 21.1 27.7999 20.4 28.4999 20C31.2999 23.5 31.2999 23.5 31.2999 23.5C31.2999 23.9 31.6999 23.9 31.9999 23.9C32.2999 23.9 32.6999 23.9 32.6999 23.5C35.0999 20 35.0999 20 35.0999 20C36.0999 20.3 37.1999 21.1 38.1999 21.8C38.4999 22.1 38.4999 22.1 38.8999 22.5C39.5999 23.6 39.2999 28.1 38.8999 30.2C38.1999 32 36.7999 34.8 36.7999 34.8C36.7999 34.8 36.7999 34.8 36.4999 34.8C36.1999 35.9 36.1999 36.6 36.1999 37.6C34.0999 57.6 34.0999 57.6 34.0999 57.6C34.0999 57.9 33.7999 57.9 33.7999 57.9C30.2999 57.9 30.2999 57.9 30.2999 57.9C30.2999 57.9 29.9999 57.9 29.9999 57.6C27.8999 37.6 27.8999 37.6 27.8999 37.6C27.8999 36.5 27.5999 35.8 27.1999 34.8C27.1999 34.8 25.7999 32 25.0999 30.2C24.6999 28.1 24.3999 23.6 24.9999 22.5ZM23.2999 21.1C21.8999 22.9 22.5999 29.2 23.2999 30.6C23.5999 32.7 24.9999 35.5 25.3999 35.9C25.6999 36.6 25.6999 37 26.0999 37.7C27.7999 58 27.7999 58 27.7999 58C28.1999 59.1 29.1999 60.1 30.1999 60.1C33.6999 60.1 33.6999 60.1 33.6999 60.1C34.6999 60.1 35.7999 59 36.0999 58C38.1999 37.7 38.1999 37.7 38.1999 37.7C38.1999 37 38.1999 36.6 38.4999 35.9C38.7999 35.5 40.1999 32.7 40.5999 30.6C41.2999 29.2 41.9999 22.9 40.5999 21.1C39.8999 20.7 39.8999 20.4 39.1999 20C37.4999 18.6 35.3999 17.9 35.3999 17.9C34.6999 17.5 34.3999 17.9 33.9999 18.3C31.9999 21.1 31.9999 21.1 31.9999 21.1C29.8999 18.3 29.8999 18.3 29.8999 18.3C29.5999 17.9 29.1999 17.6 28.4999 17.9C28.4999 17.9 26.3999 18.6 24.6999 20C23.9999 20.4 23.9999 20.8 23.2999 21.1ZM44.1999 12.4C44.1999 10 45.5999 9.2 46.5999 9.2C46.9999 9.2 46.9999 9.2 46.9999 9.2C47.6999 9.2 49.3999 9.9 49.3999 12.4C49.3999 13.1 49.3999 15.2 48.3999 16.3C47.9999 16.6 47.6999 17 46.6999 17C45.9999 17 45.2999 16.6 44.9999 16.3C43.7999 15.2 43.7999 13.1 44.1999 12.4ZM46.5999 19C46.9999 19 46.9999 19 46.9999 19C47.9999 19 49.3999 18.6 50.0999 17.6C51.7999 15.8 51.4999 12.3 51.4999 12C51.4999 8.5 49.0999 7.4 46.9999 7.4H46.5999C44.4999 7.4 42.0999 8.5 42.0999 12C42.0999 12.4 41.7999 15.9 43.4999 17.6C44.1999 18.7 45.1999 19 46.5999 19ZM40.9999 35.9C40.2999 36.2 40.2999 36.6 40.2999 37.3C40.6999 38 40.9999 38.3 40.9999 39C42.6999 57.9 42.6999 57.9 42.6999 57.9C42.9999 59.3 43.6999 60 45.0999 60C48.1999 60 48.1999 60 48.1999 60C49.1999 60 50.2999 59.3 50.2999 57.9C52.4999 39 52.4999 39 52.4999 39C52.4999 38.3 52.7999 38 52.7999 37.2C53.0999 36.9 54.4999 34.4 54.8999 32.3C55.1999 30.9 56.2999 24.9 54.8999 23.5C54.1999 23.1 54.1999 22.8 53.4999 22.4C52.0999 21 49.9999 20.3 49.9999 20.3C49.2999 20 48.9999 20.3 48.5999 20.7C46.4999 23.5 46.4999 23.5 46.4999 23.5C44.7999 20.7 44.7999 20.7 44.7999 20.7C44.3999 20.3 43.7999 20 43.3999 20.3C42.6999 20.7 42.6999 21.4 43.0999 21.7C45.8999 25.6 45.8999 25.6 45.8999 25.6C46.1999 25.9 46.1999 26.3 46.5999 26.3C46.9999 26.3 47.2999 25.9 47.5999 25.6C49.6999 22.4 49.6999 22.4 49.6999 22.4C50.3999 22.8 51.3999 23.5 52.4999 24.2C52.7999 24.2 52.7999 24.6 53.1999 24.9C53.4999 25.6 53.4999 29.8 53.1999 31.9C52.4999 33.7 51.0999 36.1 51.0999 36.1C51.0999 36.1 51.0999 36.1 51.0999 36.5C50.7999 37.2 50.3999 37.9 50.3999 38.9C48.6999 57.8 48.6999 57.8 48.6999 57.8C48.3999 57.8 48.3999 57.8 48.3999 57.8C45.2999 57.8 45.2999 57.8 45.2999 57.8C44.9999 57.8 44.9999 57.8 44.9999 57.8C43.0999 39 43.0999 39 43.0999 39C42.7999 38 42.7999 37.2 42.3999 36.6C42.0999 35.9 41.3999 35.5 40.9999 35.9ZM14.5999 12.4C14.5999 10 16.2999 9.2 16.9999 9.2H17.3999C18.0999 9.2 19.7999 9.9 19.7999 12.4C19.7999 13.1 19.7999 15.2 19.0999 16.3C18.3999 16.6 18.0999 17 17.3999 17C17.3999 17 17.3999 17 16.9999 17C16.2999 17 15.9999 16.6 15.2999 16.3C14.5999 15.2 14.5999 13.1 14.5999 12.4ZM16.9999 19C17.3999 19 17.3999 19 17.3999 19C18.7999 19 19.7999 18.6 20.4999 17.6C22.1999 15.8 21.8999 12.3 21.8999 12C21.8999 8.5 19.4999 7.4 17.3999 7.4C16.9999 7.4 16.9999 7.4 16.9999 7.4C14.8999 7.4 12.4999 8.5 12.4999 12C12.4999 12.4 12.1999 15.9 13.8999 17.6C14.5999 18.7 15.6999 19 16.9999 19ZM9.09989 32.4C9.49989 34.5 10.7999 37 11.1999 37.3C11.1999 38 11.4999 38.4 11.4999 39.1C13.1999 58 13.1999 58 13.1999 58C13.4999 59.4 14.5999 60.1 15.5999 60.1C18.6999 60.1 18.6999 60.1 18.6999 60.1C20.0999 60.1 20.7999 59.4 21.0999 58C22.9999 39 22.9999 39 22.9999 39C22.9999 38.3 23.2999 38 23.6999 37.2C23.6999 36.5 23.6999 36.1 22.9999 35.8C22.6999 35.4 21.9999 35.8 21.5999 36.5C21.1999 37.2 21.1999 37.9 20.8999 38.9C19.1999 57.8 19.1999 57.8 19.1999 57.8C19.1999 57.8 19.1999 57.8 18.8999 57.8C15.7999 57.8 15.7999 57.8 15.7999 57.8H15.4999C13.5999 39 13.5999 39 13.5999 39C13.5999 38 13.2999 37.2 12.8999 36.2C12.8999 36.2 11.4999 33.8 10.7999 32C10.4999 29.9 10.0999 25.7 10.7999 25C11.0999 24.7 11.0999 24.3 11.4999 24.3C12.4999 23.6 13.5999 22.9 14.2999 22.5C16.3999 25.7 16.3999 25.7 16.3999 25.7C16.6999 26 17.0999 26.4 17.3999 26.4C17.3999 26.4 17.6999 26 18.0999 25.7C20.8999 21.8 20.8999 21.8 20.8999 21.8C21.1999 21.4 21.1999 20.7 20.5999 20.4C20.1999 20.1 19.5999 20.4 19.1999 20.8C17.4999 23.6 17.4999 23.6 17.4999 23.6C15.3999 20.8 15.3999 20.8 15.3999 20.8C15.0999 20.4 14.6999 20.1 13.9999 20.4C13.9999 20.4 11.8999 21.1 10.4999 22.5C9.79989 22.9 9.79989 23.2 9.09989 23.6C7.69989 25 8.69989 30.9 9.09989 32.4Z" fill="#ffffff"/>
</svg>