<svg xmlns="http://www.w3.org/2000/svg" width="64" height="64" viewBox="0 0 64 64" fill="none" class="injected-svg" data-src="../../assets/svgIcons/a036b5808f65.svg" xmlns:xlink="http://www.w3.org/1999/xlink" role="img">
<path fill-rule="evenodd" clip-rule="evenodd" d="M40.1014 36.6C40.1014 39.8 37.3014 42.6 34.1014 42.6C33.4014 42.6 33.4014 42.6 33.4014 42.6C33.4014 45.4 33.4014 45.4 33.4014 45.4C33.4014 46.5 32.7014 46.8 32.0014 46.8C31.3014 46.8 30.6014 46.4 30.6014 45.4C30.6014 42.6 30.6014 42.6 30.6014 42.6C26.7014 42.6 26.7014 42.6 26.7014 42.6C25.6014 42.6 25.3014 41.9 25.3014 41.2C25.3014 40.5 25.6014 39.8 26.7014 39.8C34.1014 39.8 34.1014 39.8 34.1014 39.8C35.9014 39.8 37.3014 38.4 37.3014 36.6C37.3014 34.8 35.9014 33.4 34.1014 33.4C29.9014 33.4 29.9014 33.4 29.9014 33.4C26.7014 33.4 23.9014 30.6 23.9014 27.3C23.9014 24.1 26.7014 21.3 29.9014 21.3C30.6014 21.3 30.6014 21.3 30.6014 21.3C30.6014 18.5 30.6014 18.5 30.6014 18.5C30.6014 17.4 31.3014 17.1 32.0014 17.1C32.7014 17.1 33.4014 17.5 33.4014 18.5C33.4014 21.3 33.4014 21.3 33.4014 21.3C37.3014 21.3 37.3014 21.3 37.3014 21.3C38.0014 21.3 38.7014 22 38.7014 22.7C38.7014 23.4 38.0014 24.1 37.3014 24.1C29.9014 24.1 29.9014 24.1 29.9014 24.1C28.1014 24.1 26.7014 25.5 26.7014 27.3C26.7014 29.1 28.1014 30.5 29.9014 30.5C34.1014 30.5 34.1014 30.5 34.1014 30.5C37.3014 30.6 40.1014 33.1 40.1014 36.6ZM56.7014 38.1C55.3014 39.9 55.3014 39.9 55.3014 39.9C54.2014 40.6 53.9014 41.7 53.9014 43.1C53.9014 45.6 53.9014 45.6 53.9014 45.6C53.9014 46.3 53.5014 47 52.8014 47C50.3014 48 50.3014 48 50.3014 48C49.2014 48.4 48.2014 49.4 47.8014 50.5C47.2014 53 47.2014 53 47.2014 53C46.9014 53.4 46.1014 54.1 45.4014 54.1C42.9014 54.1 42.9014 54.1 42.9014 54.1C41.8014 54.1 40.4014 54.5 39.7014 55.5C38.0014 56.9 38.0014 56.9 38.0014 56.9C37.6014 57.3 37.3014 57.6 36.6014 57.6C36.6014 57.6 36.2014 57.6 35.9014 57.2C33.8014 56.5 33.8014 56.5 33.8014 56.5C33.1014 56.1 32.7014 56.1 32.0014 56.1C31.3014 56.1 30.9014 56.1 30.2014 56.5C28.1014 57.2 28.1014 57.2 28.1014 57.2C27.8014 57.6 27.4014 57.6 27.4014 57.6C26.7014 57.6 26.3014 57.2 26.0014 56.9C24.2014 55.5 24.2014 55.5 24.2014 55.5C23.5014 54.4 22.4014 54.1 21.0014 54.1C18.5014 54.1 18.5014 54.1 18.5014 54.1C17.8014 54.1 17.1014 53.4 17.1014 53C16.0014 50.5 16.0014 50.5 16.0014 50.5C15.7014 49.4 14.6014 48.4 13.5014 48C11.4014 46.9 11.4014 46.9 11.4014 46.9C10.7014 46.9 10.0014 46.2 10.0014 45.5C10.0014 43 10.0014 43 10.0014 43C10.0014 41.6 9.70145 40.5 8.90145 39.8C7.10145 38 7.10145 38 7.10145 38C6.40145 37.3 6.40145 36.6 6.70145 35.9C7.40145 33.8 7.40145 33.8 7.40145 33.8C8.10145 32.7 8.10145 31.3 7.40145 30.2C7.00145 28.1 7.00145 28.1 7.00145 28.1C6.60145 27.4 6.60145 26.7 7.40145 26C9.20145 24.2 9.20145 24.2 9.20145 24.2C9.90145 23.5 10.3014 22.1 10.3014 21C10.3014 18.5 10.3014 18.5 10.3014 18.5C10.3014 17.8 11.0014 17.1 11.7014 16.7C13.8014 16 13.8014 16 13.8014 16C14.9014 15.6 15.9014 14.6 16.3014 13.5C17.4014 11 17.4014 11 17.4014 11C17.4014 10.6 18.1014 9.9 18.8014 9.9C21.3014 9.9 21.3014 9.9 21.3014 9.9C22.7014 9.9 23.8014 9.5 24.5014 8.5C26.0014 7.1 26.0014 7.1 26.0014 7.1C26.4014 6.7 26.7014 6.4 27.4014 6.4C27.4014 6.4 27.8014 6.4 28.1014 6.8C30.2014 7.5 30.2014 7.5 30.2014 7.5C30.9014 7.9 31.3014 7.9 32.0014 7.9C32.7014 7.9 33.4014 7.9 33.8014 7.5C35.9014 6.8 35.9014 6.8 35.9014 6.8C36.2014 6.4 36.6014 6.4 36.6014 6.4C37.3014 6.4 37.7014 6.8 38.0014 7.1C39.8014 8.5 39.8014 8.5 39.8014 8.5C40.5014 9.6 41.9014 9.9 43.0014 9.9C45.5014 9.9 45.5014 9.9 45.5014 9.9C46.2014 9.9 46.9014 10.6 47.3014 11C48.0014 13.5 48.0014 13.5 48.0014 13.5C48.3014 14.6 49.4014 15.6 50.5014 16C53.0014 16.7 53.0014 16.7 53.0014 16.7C53.4014 17.1 54.1014 17.8 54.1014 18.5C54.1014 21 54.1014 21 54.1014 21C54.1014 22.1 54.4014 23.5 55.5014 24.2C56.9014 26 56.9014 26 56.9014 26C57.6014 26.7 57.6014 27.4 57.3014 28.1C56.6014 30.2 56.6014 30.2 56.6014 30.2C56.2014 31.3 56.2014 32.7 56.6014 33.8C57.3014 35.9 57.3014 35.9 57.3014 35.9C57.4014 36.6 57.4014 37.3 56.7014 38.1ZM59.9014 34.8C58.8014 32.7 58.8014 32.7 58.8014 32.7C58.8014 32.3 58.8014 31.6 58.8014 31.3C59.9014 29.2 59.9014 29.2 59.9014 29.2C60.6014 27.4 60.2014 25.3 58.8014 23.9C57.0014 22.4 57.0014 22.4 57.0014 22.4C56.6014 22 56.6014 21.3 56.6014 21C56.6014 18.5 56.6014 18.5 56.6014 18.5C56.6014 16.7 55.5014 14.9 53.8014 14.2C51.3014 13.1 51.3014 13.1 51.3014 13.1C50.9014 13.1 50.6014 12.7 50.6014 12.4C49.5014 9.9 49.5014 9.9 49.5014 9.9C48.8014 8.1 47.0014 7.1 45.3014 7.1C42.8014 7.1 42.8014 7.1 42.8014 7.1C42.5014 7.1 41.7014 7.1 41.4014 6.7C40.1014 5 40.1014 5 40.1014 5C39.0014 3.9 38.0014 3.6 36.6014 3.6C36.2014 3.6 35.5014 3.6 34.8014 4C32.7014 5 32.7014 5 32.7014 5C32.4014 5 31.6014 5 31.3014 5C29.2014 3.9 29.2014 3.9 29.2014 3.9C28.5014 3.5 27.8014 3.5 27.4014 3.5C26.0014 3.5 24.9014 3.9 23.9014 4.9C22.5014 6.7 22.5014 6.7 22.5014 6.7C22.1014 7.1 21.4014 7.1 21.1014 7.1C18.6014 7.1 18.6014 7.1 18.6014 7.1C16.8014 7.1 15.1014 8.2 14.4014 9.9C13.3014 12.4 13.3014 12.4 13.3014 12.4C13.3014 12.8 12.9014 13.1 12.6014 13.1C10.1014 14.2 10.1014 14.2 10.1014 14.2C8.30145 14.9 7.30145 16.7 7.30145 18.5C7.30145 21 7.30145 21 7.30145 21C7.30145 21.4 7.30145 22.1 6.90145 22.4C5.10145 23.8 5.10145 23.8 5.10145 23.8C3.70145 25.2 3.30145 27.4 4.00145 29.1C5.10145 31.2 5.10145 31.2 5.10145 31.2C5.10145 31.6 5.10145 32.3 5.10145 32.6C4.00145 34.7 4.00145 34.7 4.00145 34.7C3.30145 36.5 3.70145 38.6 5.10145 40C7.00145 41.6 7.00145 41.6 7.00145 41.6C7.30145 42 7.30145 42.7 7.30145 43C7.30145 45.5 7.30145 45.5 7.30145 45.5C7.30145 47.3 8.40145 49.1 10.1014 49.8C12.6014 50.9 12.6014 50.9 12.6014 50.9C13.0014 50.9 13.3014 51.3 13.3014 51.6C14.4014 54.1 14.4014 54.1 14.4014 54.1C15.1014 55.9 16.9014 56.9 18.6014 56.9C21.1014 56.9 21.1014 56.9 21.1014 56.9C21.4014 56.9 22.2014 56.9 22.5014 57.3C23.9014 59.1 23.9014 59.1 23.9014 59.1C25.0014 60.2 26.0014 60.5 27.4014 60.5C27.8014 60.5 28.5014 60.5 29.2014 60.1C31.3014 59 31.3014 59 31.3014 59C31.6014 59 32.4014 59 32.7014 59C34.8014 60.1 34.8014 60.1 34.8014 60.1C35.5014 60.5 36.2014 60.5 36.6014 60.5C38.0014 60.5 39.1014 60.1 40.1014 59.1C41.5014 57.3 41.5014 57.3 41.5014 57.3C41.9014 56.9 42.6014 56.9 42.9014 56.9C45.4014 56.9 45.4014 56.9 45.4014 56.9C47.2014 56.9 48.9014 55.8 49.6014 54.1C50.7014 51.6 50.7014 51.6 50.7014 51.6C50.7014 51.2 51.1014 50.9 51.4014 50.9C53.9014 49.8 53.9014 49.8 53.9014 49.8C55.7014 49.1 56.7014 47.3 56.7014 45.5C56.7014 43 56.7014 43 56.7014 43C56.7014 42.6 56.7014 41.9 57.1014 41.6C58.9014 40.2 58.9014 40.2 58.9014 40.2C60.2014 38.8 60.6014 36.6 59.9014 34.8Z" fill="#ffffff"/>
</svg>