<svg xmlns="http://www.w3.org/2000/svg" width="64" height="64" viewBox="0 0 64 64" fill="none" class="injected-svg" data-src="../../assets/svgIcons/7628912d91f6.svg" xmlns:xlink="http://www.w3.org/1999/xlink" role="img">
<path fill-rule="evenodd" clip-rule="evenodd" d="M20.0008 42.1996C20.0008 42.8996 19.3008 43.2996 18.6008 43.2996C9.80078 43.2996 9.80078 43.2996 9.80078 43.2996C9.10078 43.2996 8.70078 42.8996 8.70078 42.1996C8.70078 41.4996 9.10078 40.7996 9.80078 40.7996C18.6008 40.7996 18.6008 40.7996 18.6008 40.7996C19.3008 40.6996 20.0008 41.3996 20.0008 42.1996ZM20.0008 35.6996C20.0008 36.3996 19.3008 37.0996 18.6008 37.0996C5.20078 37.0996 5.20078 37.0996 5.20078 37.0996C4.50078 37.0996 3.80078 36.3996 3.80078 35.6996C3.80078 34.9996 4.50078 34.2996 5.20078 34.2996C18.6008 34.2996 18.6008 34.2996 18.6008 34.2996C19.3008 34.2996 20.0008 34.9996 20.0008 35.6996ZM20.0008 29.2996C20.0008 29.9996 19.3008 30.6996 18.6008 30.6996C9.80078 30.6996 9.80078 30.6996 9.80078 30.6996C9.10078 30.6996 8.70078 29.9996 8.70078 29.2996C8.70078 28.5996 9.10078 28.1996 9.80078 28.1996C18.6008 28.1996 18.6008 28.1996 18.6008 28.1996C19.3008 28.2996 20.0008 28.5996 20.0008 29.2996ZM53.2008 53.8996C28.8008 53.8996 28.8008 53.8996 28.8008 53.8996C26.3008 53.8996 24.2008 52.0996 24.2008 49.9996C26.7008 19.6996 26.7008 19.6996 26.7008 19.6996C31.3008 19.6996 31.3008 19.6996 31.3008 19.6996C31.3008 23.9996 31.3008 23.9996 31.3008 23.9996C31.3008 24.6996 32.0008 25.0996 32.7008 25.0996C33.4008 25.0996 33.8008 24.6996 33.8008 23.9996C33.8008 19.6996 33.8008 19.6996 33.8008 19.6996C47.9008 19.6996 47.9008 19.6996 47.9008 19.6996C47.9008 23.9996 47.9008 23.9996 47.9008 23.9996C47.9008 24.6996 48.6008 25.0996 49.3008 25.0996C50.0008 25.0996 50.4008 24.6996 50.4008 23.9996C50.4008 19.6996 50.4008 19.6996 50.4008 19.6996C55.0008 19.6996 55.0008 19.6996 55.0008 19.6996C57.8008 49.9996 57.8008 49.9996 57.8008 49.9996C57.8008 52.0996 55.7008 53.8996 53.2008 53.8996ZM40.8008 10.0996C44.7008 10.0996 47.9008 13.2996 47.9008 17.1996C34.1008 17.1996 34.1008 17.1996 34.1008 17.1996C34.1008 13.2996 36.9008 10.0996 40.8008 10.0996ZM60.3008 49.9996C57.5008 18.2996 57.5008 18.2996 57.5008 18.2996C57.5008 17.5996 56.8008 17.1996 56.1008 17.1996C50.4008 17.1996 50.4008 17.1996 50.4008 17.1996C50.4008 11.8996 46.2008 7.59961 40.9008 7.59961C35.6008 7.59961 31.4008 11.8996 31.4008 17.1996C25.7008 17.1996 25.7008 17.1996 25.7008 17.1996C25.0008 17.1996 24.6008 17.5996 24.3008 18.2996C21.4008 49.9996 21.4008 49.9996 21.4008 49.9996C21.4008 53.5996 24.9008 56.3996 28.8008 56.3996C53.2008 56.3996 53.2008 56.3996 53.2008 56.3996C57.1008 56.3996 60.3008 53.4996 60.3008 49.9996Z" fill="#daaa0b"/>
</svg>