<svg xmlns="http://www.w3.org/2000/svg" width="64" height="64" viewBox="0 0 64 64" fill="none" class="injected-svg" data-src="../../assets/svgIcons/bdd836b70f36.svg" xmlns:xlink="http://www.w3.org/1999/xlink" role="img">
<path fill-rule="evenodd" clip-rule="evenodd" d="M30.0996 37.7008C28.1996 37.3008 26.6996 36.2008 25.9996 34.7008C24.8996 32.8008 24.8996 30.9008 25.1996 29.4008C25.5996 27.5008 26.6996 26.0008 28.5996 24.9008C29.6996 24.5008 30.7996 24.1008 31.9996 24.1008C32.6996 24.1008 33.0996 24.1008 33.8996 24.1008C35.7996 24.9008 37.2996 26.0008 37.9996 27.5008C39.0996 29.0008 39.0996 30.9008 38.7996 32.8008C38.3996 34.7008 37.2996 36.2008 35.3996 36.9008C33.8996 38.0008 31.9996 38.4008 30.0996 37.7008ZM27.4996 23.3008C27.0996 23.3008 26.6996 23.7008 26.3996 24.1008C18.8996 16.2008 18.8996 16.2008 18.8996 16.2008C19.9996 15.4008 21.0996 14.7008 22.2996 13.9008C29.7996 9.40078 39.0996 10.9008 45.0996 16.2008C37.5996 24.1008 37.5996 24.1008 37.5996 24.1008C36.4996 23.3008 35.3996 22.6008 34.1996 22.2008C31.9996 21.8008 29.7996 21.8008 27.4996 23.3008ZM40.5996 33.5008C41.2996 30.9008 40.9996 28.6008 39.7996 26.3008C39.3996 25.9008 39.0996 25.5008 39.0996 25.2008C46.5996 17.7008 46.5996 17.7008 46.5996 17.7008C47.2996 18.8008 48.4996 20.0008 48.7996 21.1008C50.6996 24.1008 51.7996 27.5008 51.3996 31.3008C51.3996 31.7008 52.1996 32.1008 52.4996 32.1008C53.1996 32.1008 53.5996 31.7008 53.5996 31.3008C53.5996 29.4008 53.1996 27.9008 52.7996 26.4008C55.3996 25.6008 55.3996 25.6008 55.3996 25.6008C55.7996 25.6008 56.0996 25.2008 55.7996 24.5008C55.7996 24.1008 55.3996 23.7008 54.6996 23.7008C52.4996 24.5008 52.4996 24.5008 52.4996 24.5008C52.0996 23.4008 51.7996 22.2008 50.9996 21.1008C53.1996 20.0008 53.1996 20.0008 53.1996 20.0008C53.5996 19.6008 53.5996 18.9008 53.5996 18.5008C53.1996 18.1008 52.4996 17.7008 52.0996 18.1008C50.1996 19.2008 50.1996 19.2008 50.1996 19.2008C49.3996 18.1008 48.6996 17.3008 47.9996 16.2008C49.4996 14.7008 49.4996 14.7008 49.4996 14.7008C49.8996 14.3008 49.8996 13.6008 49.4996 13.2008C49.0996 12.8008 48.3996 12.8008 47.9996 13.2008C46.5996 15.0008 46.5996 15.0008 46.5996 15.0008C45.7996 13.9008 44.6996 13.1008 43.5996 12.7008C44.6996 10.4008 44.6996 10.4008 44.6996 10.4008C45.0996 10.0008 45.0996 9.30078 44.2996 9.30078C43.9996 9.00078 43.1996 9.00078 43.1996 9.80078C42.0996 11.7008 42.0996 11.7008 42.0996 11.7008C40.9996 11.3008 39.8996 10.6008 38.6996 10.2008C39.0996 7.90078 39.0996 7.90078 39.0996 7.90078C39.4996 7.50078 39.0996 6.80078 38.2996 6.80078C37.8996 6.80078 37.1996 6.80078 37.1996 7.60078C36.3996 9.90078 36.3996 9.90078 36.3996 9.90078C35.2996 9.50078 34.1996 9.50078 32.9996 9.50078C32.9996 6.90078 32.9996 6.90078 32.9996 6.90078C33.0996 6.40078 32.3996 6.00078 31.9996 6.00078C31.5996 6.00078 30.8996 6.40078 30.8996 6.80078C30.8996 9.40078 30.8996 9.40078 30.8996 9.40078C29.7996 9.40078 28.6996 9.40078 27.4996 9.80078C26.6996 7.50078 26.6996 7.50078 26.6996 7.50078C26.6996 6.70078 25.9996 6.70078 25.5996 6.70078C24.7996 6.70078 24.4996 7.50078 24.7996 7.80078C25.1996 10.1008 25.1996 10.1008 25.1996 10.1008C24.0996 10.5008 22.9996 11.2008 21.7996 11.6008C20.6996 9.70078 20.6996 9.70078 20.6996 9.70078C20.7996 9.00078 19.9996 9.00078 19.6996 9.40078C18.9996 9.40078 18.9996 10.2008 19.2996 10.5008C20.3996 12.8008 20.3996 12.8008 20.3996 12.8008C19.2996 13.2008 18.1996 13.9008 17.3996 15.1008C15.8996 13.2008 15.8996 13.2008 15.8996 13.2008C15.4996 12.8008 14.7996 12.8008 14.3996 13.2008C13.9996 13.6008 13.9996 14.3008 14.3996 14.7008C15.8996 16.2008 15.8996 16.2008 15.8996 16.2008C15.1996 17.3008 14.3996 18.1008 13.6996 19.2008C11.7996 18.1008 11.7996 18.1008 11.7996 18.1008C11.3996 17.7008 10.6996 18.1008 10.2996 18.5008C10.2996 18.9008 10.2996 19.6008 10.6996 20.0008C12.8996 21.1008 12.8996 21.1008 12.8996 21.1008C12.0996 22.2008 11.7996 23.4008 11.3996 24.5008C9.19961 23.7008 9.19961 23.7008 9.19961 23.7008C8.39961 23.7008 8.09961 24.1008 8.09961 24.5008C7.69961 24.9008 8.09961 25.6008 8.49961 25.6008C11.0996 26.4008 11.0996 26.4008 11.0996 26.4008C10.6996 27.9008 10.2996 29.4008 10.2996 31.3008C10.2996 31.7008 10.6996 32.1008 11.3996 32.1008C11.7996 32.1008 12.4996 31.7008 12.4996 31.3008C12.0996 26.0008 13.9996 21.5008 17.3996 17.7008C24.8996 25.2008 24.8996 25.2008 24.8996 25.2008C24.1996 26.3008 23.7996 27.5008 23.3996 28.6008C22.6996 30.9008 22.9996 33.5008 24.1996 35.4008C25.2996 37.7008 27.5996 39.2008 29.7996 39.9008C30.4996 39.9008 31.2996 39.9008 31.9996 39.9008C33.4996 39.9008 34.9996 39.5008 36.4996 38.8008C38.6996 37.7008 40.1996 35.8008 40.5996 33.5008ZM51.0996 45.6008C52.5996 45.6008 54.0996 46.4008 54.7996 47.9008C54.7996 48.3008 54.7996 48.3008 54.7996 48.7008C54.3996 48.7008 54.0996 49.1008 54.0996 49.5008C53.6996 49.9008 53.2996 50.3008 53.2996 50.6008C52.8996 50.6008 52.8996 51.0008 52.5996 51.0008C52.1996 51.4008 52.1996 51.8008 51.8996 51.8008C51.8996 52.2008 51.4996 52.2008 51.4996 52.6008C51.0996 53.0008 50.7996 53.4008 49.9996 53.7008L49.5996 54.1008L49.1996 54.5008C48.0996 54.1008 47.6996 53.4008 46.9996 52.6008C45.8996 50.3008 46.5996 47.7008 48.8996 46.6008C49.5996 45.6008 50.2996 45.6008 51.0996 45.6008ZM43.5996 39.5008C46.9996 44.8008 46.9996 44.8008 46.9996 44.8008C45.0996 46.3008 44.3996 48.2008 44.3996 50.5008C38.3996 51.6008 38.3996 51.6008 38.3996 51.6008C37.5996 47.1008 39.7996 42.2008 43.5996 39.5008ZM45.0996 56.9008C44.6996 56.9008 44.3996 57.3008 44.3996 57.3008C43.9996 57.7008 43.5996 57.7008 43.2996 57.7008C43.2996 57.7008 43.2996 58.1008 42.8996 58.1008C42.4996 58.1008 41.7996 58.5008 41.3996 58.5008C40.6996 58.1008 40.2996 57.4008 39.8996 56.6008C39.4996 55.8008 39.1996 54.7008 38.7996 54.0008C44.7996 52.5008 44.7996 52.5008 44.7996 52.5008C45.1996 52.9008 45.1996 53.3008 45.4996 53.6008C45.8996 54.4008 46.5996 55.1008 47.3996 55.5008C46.6996 55.9008 46.2996 56.6008 45.4996 57.0008H45.0996V56.9008ZM58.8996 40.3008C58.4996 40.3008 58.4996 40.7008 58.4996 41.1008C58.0996 41.5008 58.0996 41.5008 58.0996 41.9008C58.0996 41.9008 57.6996 42.3008 57.6996 42.7008C57.6996 43.5008 57.2996 43.8008 56.8996 44.2008C56.4996 45.0008 56.1996 45.7008 56.1996 46.5008C54.2996 43.9008 51.2996 43.1008 48.3996 44.2008C45.3996 38.5008 45.3996 38.5008 45.3996 38.5008C47.2996 37.7008 49.0996 37.4008 50.9996 37.4008C53.5996 37.4008 56.1996 38.2008 58.7996 40.0008C58.8996 39.9008 58.8996 39.9008 58.8996 40.3008ZM24.8996 59.1008C25.6996 58.3008 25.9996 57.6008 26.3996 56.5008C27.0996 55.0008 27.4996 53.5008 27.8996 51.6008C28.9996 51.6008 28.9996 51.6008 28.9996 51.6008C29.3996 51.6008 30.0996 51.2008 30.0996 50.5008C30.0996 50.1008 29.3996 49.7008 28.9996 49.7008C27.8996 49.7008 27.8996 49.7008 27.8996 49.7008C27.4996 47.8008 27.0996 45.9008 26.3996 44.0008C27.4996 43.2008 27.4996 43.2008 27.4996 43.2008C27.8996 43.2008 27.8996 42.4008 27.8996 42.1008C27.4996 41.3008 26.7996 41.3008 26.3996 41.7008C25.2996 42.1008 25.2996 42.1008 25.2996 42.1008C24.5996 41.3008 23.7996 40.2008 23.0996 39.5008C22.3996 39.1008 21.9996 38.7008 21.1996 38.4008C21.9996 37.3008 21.9996 37.3008 21.9996 37.3008C22.3996 36.5008 21.9996 36.2008 21.5996 35.8008C21.1996 35.4008 20.4996 35.8008 20.0996 36.2008C19.6996 37.3008 19.6996 37.3008 19.6996 37.3008C17.7996 36.5008 15.9996 35.8008 14.0996 35.8008C14.0996 34.7008 14.0996 34.7008 14.0996 34.7008C14.0996 33.9008 13.6996 33.6008 12.9996 33.6008C12.5996 33.6008 12.1996 34.0008 12.1996 34.7008C12.1996 35.8008 12.1996 35.8008 12.1996 35.8008C9.99961 35.8008 7.69961 36.6008 5.79961 37.7008C5.49961 38.0008 5.09961 38.0008 4.69961 38.4008C4.29961 36.1008 3.99961 34.3008 3.99961 32.0008C3.99961 16.5008 16.6996 3.70078 31.9996 3.70078C47.2996 3.70078 59.9996 16.5008 59.9996 32.0008C59.9996 33.9008 59.5996 36.1008 59.2996 38.0008C57.0996 36.1008 54.3996 35.4008 51.7996 35.4008C51.7996 33.9008 51.7996 33.9008 51.7996 33.9008C51.7996 33.5008 51.3996 33.1008 50.9996 33.1008C50.2996 33.1008 49.8996 33.5008 49.8996 33.9008C49.8996 35.4008 49.8996 35.4008 49.8996 35.4008C47.9996 35.4008 46.1996 35.8008 44.2996 36.9008C43.9996 35.8008 43.9996 35.8008 43.9996 35.8008C43.5996 35.0008 42.8996 35.0008 42.4996 35.4008C42.0996 35.4008 41.6996 36.2008 42.0996 36.5008C42.8996 37.6008 42.8996 37.6008 42.8996 37.6008C40.9996 38.7008 39.8996 40.2008 38.7996 41.7008C37.6996 40.9008 37.6996 40.9008 37.6996 40.9008C37.2996 40.9008 36.5996 40.9008 36.1996 41.3008C36.1996 42.1008 36.1996 42.4008 36.5996 42.8008C37.6996 43.6008 37.6996 43.6008 37.6996 43.6008C36.9996 45.1008 36.5996 47.0008 36.1996 48.9008C34.9996 49.0008 34.9996 49.0008 34.9996 49.0008C34.5996 49.0008 33.8996 49.8008 33.8996 50.1008C33.8996 50.5008 34.5996 51.2008 34.9996 51.2008C36.0996 51.2008 36.0996 51.2008 36.0996 51.2008C36.0996 51.6008 36.4996 52.3008 36.4996 53.1008C36.8996 54.6008 37.2996 56.1008 38.3996 57.6008C38.3996 58.0008 38.7996 58.7008 39.1996 59.1008C36.9996 59.9008 34.6996 60.2008 32.0996 60.2008C29.7996 60.3008 27.0996 59.9008 24.8996 59.1008ZM10.6996 46.7008C12.8996 45.6008 15.5996 46.3008 17.0996 48.2008C18.1996 50.5008 17.4996 53.1008 15.1996 54.6008V54.2008C14.7996 53.8008 14.4996 53.8008 14.0996 53.4008C13.6996 53.0008 13.6996 53.0008 13.3996 53.0008C12.9996 52.6008 12.6996 52.2008 12.2996 51.9008C12.2996 51.5008 11.8996 51.1008 11.5996 51.1008C11.5996 50.7008 11.1996 50.7008 11.1996 50.3008C10.7996 49.9008 10.3996 49.5008 10.0996 49.2008C10.0996 49.2008 9.69961 48.8008 9.69961 48.4008L9.29961 48.0008C9.59961 47.5008 10.2996 47.1008 10.6996 46.7008ZM22.6996 58.4008C22.2996 58.4008 22.2996 58.4008 21.9996 58.4008C20.4996 57.6008 18.5996 56.9008 17.0996 55.8008C17.7996 55.4008 18.1996 54.7008 18.5996 54.3008C24.1996 56.9008 24.1996 56.9008 24.1996 56.9008C23.7996 57.3008 23.3996 58.0008 23.0996 58.8008L22.6996 58.4008ZM24.1996 44.1008C25.2996 46.4008 25.6996 48.3008 25.6996 50.5008C25.6996 52.0008 25.6996 53.5008 24.8996 55.0008C19.2996 52.4008 19.2996 52.4008 19.2996 52.4008C19.6996 50.9008 19.6996 49.0008 18.5996 47.5008C18.5996 47.1008 18.1996 46.7008 18.1996 46.4008C22.2996 41.9008 22.2996 41.9008 22.2996 41.9008C22.9996 42.6008 23.7996 43.3008 24.1996 44.1008ZM20.7996 40.3008C16.6996 45.2008 16.6996 45.2008 16.6996 45.2008C14.7996 44.1008 12.5996 43.7008 10.6996 44.4008C7.69961 39.1008 7.69961 39.1008 7.69961 39.1008C11.7996 36.9008 16.9996 37.7008 20.7996 40.3008ZM6.59961 44.1008C6.59961 43.7008 6.59961 43.3008 6.59961 43.3008C6.19961 42.9008 6.19961 42.5008 6.19961 42.2008C5.79961 42.2008 5.79961 42.2008 5.79961 41.8008C5.79961 41.4008 5.39961 41.0008 5.39961 40.3008C5.39961 40.3008 5.79961 40.3008 5.79961 39.9008C8.79961 45.6008 8.79961 45.6008 8.79961 45.6008C8.79961 46.0008 8.39961 46.0008 7.99961 46.4008C7.59961 46.0008 7.29961 45.3008 6.89961 44.5008C6.99961 44.4008 6.99961 44.1008 6.59961 44.1008ZM59.9996 42.9008C59.9996 42.5008 59.9996 42.1008 59.9996 41.8008C60.3996 41.8008 60.3996 41.4008 60.3996 41.4008C60.3996 41.0008 60.7996 40.6008 60.7996 39.9008C61.5996 37.3008 61.8996 34.6008 61.8996 32.0008C61.8996 15.4008 48.4996 1.80078 31.9996 1.80078C15.4996 1.80078 2.09961 15.4008 2.09961 32.0008C2.09961 35.0008 2.49961 37.7008 3.19961 40.3008C3.59961 41.1008 3.59961 41.4008 3.59961 41.8008C3.99961 41.8008 3.99961 42.2008 3.99961 42.2008C3.99961 42.6008 4.39961 43.3008 4.39961 43.7008C4.79961 44.1008 4.79961 44.5008 4.79961 44.5008C5.19961 44.9008 5.19961 44.9008 5.19961 45.3008C5.59961 45.7008 5.59961 46.1008 5.89961 46.4008C8.89961 52.1008 13.3996 56.6008 18.9996 59.2008C19.3996 59.6008 19.6996 59.6008 20.0996 59.6008C20.4996 60.0008 20.4996 60.0008 20.7996 60.0008C20.7996 60.0008 21.1996 60.4008 21.4996 60.4008C21.8996 60.4008 22.2996 60.8008 22.5996 60.8008C22.5996 60.8008 22.5996 60.8008 22.9996 60.8008C25.9996 61.9008 28.9996 62.3008 31.9996 62.3008C35.3996 62.3008 38.3996 61.9008 41.2996 60.8008C41.2996 60.8008 41.2996 60.8008 41.6996 60.8008C42.0996 60.4008 42.4996 60.4008 42.7996 60.4008C42.7996 60.0008 43.1996 60.0008 43.1996 60.0008C43.5996 60.0008 43.8996 59.6008 44.2996 59.6008C50.9996 56.6008 56.2996 50.9008 59.2996 44.1008L59.6996 43.7008C59.6996 43.3008 59.6996 43.3008 59.9996 42.9008Z" fill="#ffffff"/>
</svg>