<svg xmlns="http://www.w3.org/2000/svg" width="64" height="64" viewBox="0 0 64 64" fill="none" class="injected-svg" data-src="../../assets/svgIcons/ed470303a0fb.svg" xmlns:xlink="http://www.w3.org/1999/xlink" role="img">
<path fill-rule="evenodd" clip-rule="evenodd" d="M25.7016 52.2004C25.7016 53.0004 25.3016 53.3004 24.6016 53.3004C17.8016 53.3004 17.8016 53.3004 17.8016 53.3004C17.0016 53.3004 16.7016 52.9004 16.7016 52.2004C16.7016 51.8004 17.1016 51.4004 17.8016 51.4004C24.6016 51.4004 24.6016 51.4004 24.6016 51.4004C25.3016 51.4004 25.7016 51.8004 25.7016 52.2004ZM25.7016 45.3004C25.7016 45.7004 25.3016 46.1004 24.6016 46.1004C11.7016 46.1004 11.7016 46.1004 11.7016 46.1004C10.9016 46.1004 10.6016 45.7004 10.6016 45.3004C10.6016 44.5004 11.0016 44.2004 11.7016 44.2004C24.6016 44.2004 24.6016 44.2004 24.6016 44.2004C25.3016 44.2004 25.7016 44.6004 25.7016 45.3004ZM25.7016 38.1004C25.7016 38.5004 25.3016 39.2004 24.6016 39.2004C5.70156 39.2004 5.70156 39.2004 5.70156 39.2004C4.90156 39.2004 4.60156 38.4004 4.60156 38.1004C4.60156 37.7004 5.00156 37.0004 5.70156 37.0004C24.6016 37.0004 24.6016 37.0004 24.6016 37.0004C25.3016 37.0004 25.7016 37.7004 25.7016 38.1004ZM25.7016 30.9004C25.7016 31.7004 25.3016 32.0004 24.6016 32.0004C9.40156 32.0004 9.40156 32.0004 9.40156 32.0004C9.00156 32.0004 8.60156 31.6004 8.60156 30.9004C8.60156 30.5004 9.00156 30.1004 9.40156 30.1004C24.5016 30.1004 24.5016 30.1004 24.5016 30.1004C25.3016 30.1004 25.7016 30.5004 25.7016 30.9004ZM25.7016 24.0004C25.7016 24.4004 25.3016 24.8004 24.6016 24.8004C14.8016 24.8004 14.8016 24.8004 14.8016 24.8004C14.0016 24.8004 13.7016 24.4004 13.7016 24.0004C13.7016 23.2004 14.1016 22.9004 14.8016 22.9004C24.6016 22.9004 24.6016 22.9004 24.6016 22.9004C25.3016 22.9004 25.7016 23.2004 25.7016 24.0004ZM25.7016 16.8004C25.7016 17.2004 25.3016 17.9004 24.6016 17.9004C19.7016 17.9004 19.7016 17.9004 19.7016 17.9004C19.3016 17.9004 18.6016 17.1004 18.6016 16.8004C18.6016 16.4004 19.4016 15.7004 19.7016 15.7004C24.6016 15.7004 24.6016 15.7004 24.6016 15.7004C25.3016 15.6004 25.7016 16.4004 25.7016 16.8004ZM32.8016 7.60039C32.8016 4.60039 32.8016 4.60039 32.8016 4.60039C29.0016 4.60039 29.0016 4.60039 29.0016 4.60039L28.6016 4.20039C28.6016 3.80039 29.0016 3.40039 29.0016 3.40039C38.1016 3.40039 38.1016 3.40039 38.1016 3.40039C38.5016 3.40039 38.9016 3.80039 38.9016 4.20039C38.9016 4.20039 38.5016 4.60039 38.1016 4.60039C34.7016 4.60039 34.7016 4.60039 34.7016 4.60039C34.7016 7.60039 34.7016 7.60039 34.7016 7.60039C34.3016 7.60039 33.9016 7.60039 33.6016 7.60039C33.2016 7.60039 33.2016 7.60039 33.2016 7.60039C32.8016 7.60039 32.8016 7.60039 32.8016 7.60039ZM57.1016 9.90039C58.6016 11.4004 58.6016 11.4004 58.6016 11.4004C57.1016 12.9004 57.1016 12.9004 57.1016 12.9004C55.6016 11.4004 55.6016 11.4004 55.6016 11.4004L57.1016 9.90039ZM57.1016 21.3004C56.0016 19.4004 54.8016 17.9004 53.7016 16.3004C55.6016 14.0004 55.6016 14.0004 55.6016 14.0004C57.1016 15.5004 57.1016 15.5004 57.1016 15.5004C61.3016 11.3004 61.3016 11.3004 61.3016 11.3004C57.1016 6.70039 57.1016 6.70039 57.1016 6.70039C52.9016 11.3004 52.9016 11.3004 52.9016 11.3004C54.4016 12.8004 54.4016 12.8004 54.4016 12.8004C52.1016 14.7004 52.1016 14.7004 52.1016 14.7004C50.6016 13.6004 49.1016 12.0004 47.2016 11.3004C43.8016 9.40039 40.4016 8.30039 36.6016 7.90039C36.6016 6.40039 36.6016 6.40039 36.6016 6.40039C38.1016 6.40039 38.1016 6.40039 38.1016 6.40039C39.6016 6.40039 40.7016 5.30039 40.7016 4.10039C40.7016 2.60039 39.6016 1.40039 38.1016 1.40039C29.0016 1.40039 29.0016 1.40039 29.0016 1.40039C27.9016 1.40039 26.7016 2.50039 26.7016 4.10039C26.7016 5.20039 27.8016 6.40039 29.0016 6.40039C30.5016 6.40039 30.5016 6.40039 30.5016 6.40039C30.5016 7.50039 30.5016 7.50039 30.5016 7.50039C29.4016 7.90039 28.6016 7.90039 27.5016 8.30039C26.7016 8.30039 26.4016 9.10039 26.7016 9.40039C26.7016 9.80039 27.1016 10.2004 27.8016 10.2004C28.6016 9.80039 29.7016 9.80039 30.4016 9.80039C31.5016 9.80039 31.5016 9.80039 31.5016 9.80039C31.9016 9.40039 32.3016 9.40039 32.6016 9.40039C32.6016 11.7004 32.6016 11.7004 32.6016 11.7004C32.6016 12.1004 33.0016 12.5004 33.4016 12.5004C34.2016 12.5004 34.5016 12.1004 34.5016 11.7004C34.5016 9.40039 34.5016 9.40039 34.5016 9.40039C38.3016 9.80039 41.7016 10.9004 45.1016 12.4004C44.0016 14.3004 44.0016 14.3004 44.0016 14.3004C44.0016 14.7004 44.0016 15.1004 44.4016 15.4004C44.8016 15.4004 44.8016 15.8004 45.2016 15.8004C45.2016 15.8004 45.6016 15.4004 46.0016 15.0004C46.8016 13.5004 46.8016 13.5004 46.8016 13.5004C50.2016 15.4004 52.9016 18.1004 54.7016 21.1004C53.2016 22.2004 53.2016 22.2004 53.2016 22.2004C52.4016 22.6004 52.4016 23.0004 52.8016 23.7004C52.8016 24.1004 53.2016 24.1004 53.6016 24.1004H54.0016C55.9016 23.0004 55.9016 23.0004 55.9016 23.0004C57.4016 26.4004 58.5016 29.9004 58.9016 33.7004C56.6016 33.7004 56.6016 33.7004 56.6016 33.7004C56.2016 33.7004 55.8016 34.5004 55.8016 34.8004C55.8016 35.1004 56.2016 35.9004 56.6016 35.9004C58.9016 35.9004 58.9016 35.9004 58.9016 35.9004C58.5016 39.7004 57.4016 43.1004 55.9016 46.6004C54.0016 45.7004 54.0016 45.7004 54.0016 45.7004C53.6016 45.7004 52.9016 45.7004 52.9016 46.1004C52.5016 46.9004 52.5016 47.2004 53.3016 47.6004C54.8016 48.7004 54.8016 48.7004 54.8016 48.7004C52.9016 51.8004 50.3016 54.4004 47.2016 56.3004C46.1016 54.8004 46.1016 54.8004 46.1016 54.8004C45.7016 54.0004 45.3016 54.0004 44.6016 54.4004C44.2016 54.8004 44.2016 55.2004 44.2016 55.5004C45.3016 57.4004 45.3016 57.4004 45.3016 57.4004C41.9016 58.9004 38.5016 60.1004 34.7016 60.4004C34.7016 58.1004 34.7016 58.1004 34.7016 58.1004C34.7016 57.7004 34.3016 57.3004 33.6016 57.3004C33.2016 57.3004 32.8016 57.7004 32.8016 58.1004C32.8016 60.4004 32.8016 60.4004 32.8016 60.4004C30.9016 60.0004 29.4016 60.0004 27.9016 59.6004C27.5016 59.6004 26.8016 60.0004 26.8016 60.4004C26.4016 60.8004 26.8016 61.5004 27.6016 61.5004C29.5016 61.9004 31.8016 62.3004 33.7016 62.3004C38.6016 62.3004 43.2016 60.8004 47.3016 58.5004C51.5016 56.2004 54.9016 52.8004 57.1016 48.6004C59.4016 44.4004 60.9016 39.8004 60.9016 34.9004C60.9016 30.0004 59.3016 25.5004 57.1016 21.3004ZM32.8016 36.6004C32.8016 35.8004 32.8016 35.5004 33.2016 35.1004C41.1016 29.4004 41.1016 29.4004 41.1016 29.4004C35.4016 37.4004 35.4016 37.4004 35.4016 37.4004C35.0016 37.8004 34.6016 38.2004 34.3016 38.2004C33.9016 38.2004 33.5016 38.2004 33.2016 37.8004C32.8016 37.3004 32.8016 37.0004 32.8016 36.6004ZM34.7016 40.0004C35.5016 40.0004 36.6016 39.6004 37.3016 38.5004C46.4016 25.5004 46.4016 25.5004 46.4016 25.5004C46.8016 25.1004 46.8016 24.4004 46.4016 24.0004C46.0016 24.0004 45.6016 23.6004 45.3016 24.0004C32.1016 33.5004 32.1016 33.5004 32.1016 33.5004C31.3016 34.3004 31.0016 35.0004 30.6016 36.2004C30.6016 37.3004 31.0016 38.5004 31.7016 39.2004C32.5016 39.6004 33.2016 40.0004 34.3016 40.0004C34.4016 40.0004 34.4016 40.0004 34.7016 40.0004Z" fill="#daaa0b"/>
</svg>