<svg xmlns="http://www.w3.org/2000/svg" width="481" height="480" viewBox="0 0 481 480" fill="none" class="injected-svg" data-src="../../assets/svgIcons/db9228d6-f18f-4251-97e3-7cccb568f70b.svg" xmlns:xlink="http://www.w3.org/1999/xlink" role="img">
<path d="M47.0001 295C51.0001 295 54.0002 292 54.0002 288V230C54.0002 226 51.0001 223 47.0001 223C43.0001 223 40 226 40 230V288C40 292 43.0001 295 47.0001 295Z" fill="#ffffff"/>
<path d="M444 178V143C444 64.0002 379 0 299 0H182C102 0 37.0001 64.0002 37.0001 143V178C16.0001 186 0 206 0 230V288C0 319 25.0001 344 56.0001 344H66.0001C81.0001 344 93.0002 332 93.0002 317V201C93.0002 186 81.0001 174 66.0001 174H56.0001C54.0001 174 53.0001 174 52.0001 174V142C52.0001 71.0001 110 14.0002 182 14.0002H299C371 14.0002 429 72.0001 429 142V174C428 174 426 174 425 174H419C404 174 392 186 392 201V317C392 332 404 344 419 344H425C426 344 428 344 429 344C425 412 369 465 299 465H293C296 460 298 454 298 448V438C298 421 284 406 266 406H217C200 406 185 420 185 438V448C185 465 199 480 217 480H299C377 480 441 418 444 341C466 333 481 313 481 289V231C481 206 466 185 444 178ZM57.0001 189H67.0001C74.0001 189 79.0002 194 79.0002 201V317C79.0002 324 74.0001 329 67.0001 329H57.0001C34.0001 329 16.0001 311 16.0001 288V230C15.0001 207 34.0001 189 57.0001 189ZM284 448C284 457 276 465 267 465H217C208 465 200 457 200 448V438C200 429 208 421 217 421H266C275 421 283 429 283 438V448H284ZM466 288C466 311 448 329 425 329H419C412 329 407 324 407 317V201C407 194 412 189 419 189H425C448 189 466 207 466 230V288Z" fill="#ffffff"/>
<path d="M437 223C433 223 430 226 430 230V288C430 292 433 295 437 295C441 295 444 292 444 288V230C444 226 441 223 437 223Z" fill="#ffffff"/>
<path d="M237 371C238 372 240 373 242 373C244 373 246 372 247 371L293 325H338C342 325 345 322 345 318V114C345 110 342 107 338 107H144C140 107 137 110 137 114V318C137 322 140 325 144 325H189L237 371ZM152 121H331V310H290C288 310 286 311 285 312L242 355L199 312C198 311 196 310 194 310H153V121H152Z" fill="#ffffff"/>
<path d="M211 201C215 201 218 198 218 194C218 186 222 178 228 173C234 168 243 166 251 168C261 170 268 178 271 188C274 201 267 214 255 219C244 223 237 234 237 246V252C237 256 240 259 244 259C248 259 251 256 251 252V246C251 240 254 234 260 232C279 224 289 204 284 184C281 169 269 157 253 154C240 151 228 154 218 162C208 170 202 182 202 194C204 198 207 201 211 201Z" fill="#ffffff"/>
<path d="M245 291C248.866 291 252 287.866 252 284C252 280.134 248.866 277 245 277C241.134 277 238 280.134 238 284C238 287.866 241.134 291 245 291Z" fill="#ffffff"/>
</svg>