<svg xmlns="http://www.w3.org/2000/svg" width="64" height="64" viewBox="0 0 64 64" fill="none" class="injected-svg" data-src="../../assets/svgIcons/c71bece10113.svg" xmlns:xlink="http://www.w3.org/1999/xlink" role="img">
<path fill-rule="evenodd" clip-rule="evenodd" d="M49.5016 46.5C48.3016 46.5 47.6016 45.7 47.6016 44.6C47.6016 43.8 48.4016 42.7 49.5016 42.7C50.3016 42.7 51.0016 43.9 51.0016 44.6C51.0016 45.7 50.2016 46.5 49.5016 46.5ZM49.5016 40.3C46.8016 40.3 44.9016 42.2 44.9016 44.9C44.9016 47.2 46.8016 49.1 49.5016 49.1C51.8016 49.1 53.7016 47.2 53.7016 44.9C53.7016 42.2 51.8016 40.3 49.5016 40.3ZM56.8016 54.6C55.6016 52.7 53.0016 50.7 50.3016 50.7C48.4016 50.7 48.4016 50.7 48.4016 50.7C45.3016 50.7 43.0016 52.2 41.9016 54.6C40.4016 53.1 39.6016 50.7 39.6016 48.4C39.6016 43 44.2016 38.4 49.6016 38.4C55.0016 38.4 59.2016 43 59.2016 48.4C59.1016 50.7 58.3016 53.1 56.8016 54.6ZM43.7016 56.5C44.5016 54.6 46.0016 53 48.3016 53C50.2016 53 50.2016 53 50.2016 53C52.5016 53 54.0016 54.5 54.8016 56.5C53.3016 57.3 51.3016 58 49.4016 58C47.2016 58.1 45.2016 57.3 43.7016 56.5ZM22.2016 16C22.2016 10.6 26.8016 6 32.2016 6C37.6016 6 41.8016 10.6 41.8016 16C41.8016 18.3 41.0016 20.6 39.5016 22.2C38.3016 19.9 35.7016 18.3 33.4016 18.3C31.1016 18.3 31.1016 18.3 31.1016 18.3C28.0016 18.3 25.7016 19.8 24.6016 22.2C23.4016 20.6 22.2016 18.3 22.2016 16ZM32.2016 25.6C29.9016 25.6 28.0016 24.8 26.4016 24.1C27.2016 22.2 28.7016 20.6 31.0016 20.6C33.3016 20.6 33.3016 20.6 33.3016 20.6C35.2016 20.6 36.8016 22.1 37.5016 24.1C36.0016 24.9 34.1016 25.6 32.2016 25.6ZM22.2016 54.6C21.0016 52.7 18.4016 50.7 16.1016 50.7C13.8016 50.7 13.8016 50.7 13.8016 50.7C11.1016 50.7 8.40156 52.2 7.30156 54.6C6.10156 53.1 5.00156 50.7 5.00156 48.4C5.00156 43 9.60156 38.4 15.0016 38.4C20.0016 38.4 24.6016 43 24.6016 48.4C24.5016 50.7 23.7016 53.1 22.2016 54.6ZM9.20156 56.5C10.0016 54.6 11.5016 53 13.8016 53C16.1016 53 16.1016 53 16.1016 53C18.0016 53 19.6016 54.5 20.3016 56.5C18.8016 57.3 16.8016 58 14.9016 58C12.6016 58.1 10.7016 57.3 9.20156 56.5ZM49.5016 36.1C45.3016 36.1 41.8016 38 39.5016 40.7C33.4016 34.9 33.4016 34.9 33.4016 34.9C33.4016 27.9 33.4016 27.9 33.4016 27.9C39.2016 27.5 44.2016 22.1 44.2016 15.9C44.2016 8.9 38.8016 3.5 32.3016 3.5C25.3016 3.6 19.9016 9 19.9016 16C19.9016 22.2 24.9016 27.6 31.0016 28C31.0016 35 31.0016 35 31.0016 35C24.5016 40.8 24.5016 40.8 24.5016 40.8C22.2016 38.1 18.7016 36.2 14.9016 36.2C8.00156 36.1 2.60156 41.5 2.60156 48.4C2.60156 55 8.00156 60.4 14.9016 60.4C21.4016 60.4 26.8016 55 26.8016 48.4C26.8016 46.5 26.4016 44.5 25.6016 43C31.7016 37.2 31.7016 37.2 31.7016 37.2C38.2016 43 38.2016 43 38.2016 43C37.4016 44.5 37.0016 46.5 37.0016 48.4C37.0016 55 42.4016 60.4 49.3016 60.4C55.8016 60.4 61.2016 55 61.2016 48.4C61.4016 41.5 56.0016 36.1 49.5016 36.1ZM14.9016 46.5C13.7016 46.5 13.0016 45.7 13.0016 44.6C13.0016 43.8 13.8016 42.7 14.9016 42.7C15.7016 42.7 16.4016 43.9 16.4016 44.6C16.4016 45.7 16.1016 46.5 14.9016 46.5ZM14.9016 40.3C12.2016 40.3 10.7016 42.2 10.7016 44.9C10.7016 47.2 12.2016 49.1 14.9016 49.1C16.8016 49.1 19.1016 47.2 19.1016 44.9C19.1016 42.2 17.2016 40.3 14.9016 40.3ZM32.2016 10.2C33.4016 10.2 33.7016 11.4 33.7016 12.1C33.7016 13.3 32.9016 14 32.2016 14C31.0016 14 30.3016 13.2 30.3016 12.1C30.3016 11.3 31.0016 10.2 32.2016 10.2ZM32.2016 16.7C34.5016 16.7 36.4016 14.4 36.4016 12.1C36.4016 9.8 34.5016 7.9 32.2016 7.9C29.5016 7.9 28.0016 9.8 28.0016 12.1C28.0016 14.8 29.5016 16.7 32.2016 16.7Z" fill="#ffffff"/>
</svg>