<svg xmlns="http://www.w3.org/2000/svg" width="64" height="64" viewBox="0 0 64 64" fill="none" class="injected-svg" data-src="../../assets/svgIcons/582639c3a25e.svg" xmlns:xlink="http://www.w3.org/1999/xlink" role="img">
<path fill-rule="evenodd" clip-rule="evenodd" d="M11.5016 18.2C29.9016 18.2 29.9016 18.2 29.9016 18.2C29.9016 23.2 29.9016 23.2 29.9016 23.2C11.5016 23.2 11.5016 23.2 11.5016 23.2V18.2ZM9.20156 25.6C32.2016 25.6 32.2016 25.6 32.2016 25.6C32.2016 15.5 32.2016 15.5 32.2016 15.5C9.20156 15.5 9.20156 15.5 9.20156 15.5V25.6ZM57.9016 46.5C56.0016 46.5 56.0016 46.5 56.0016 46.5C54.5016 43.8 51.8016 42.2 48.7016 42.2C45.6016 42.2 42.9016 43.8 41.8016 46.5C38.7016 46.5 38.7016 46.5 38.7016 46.5C38.7016 30.2 38.7016 30.2 38.7016 30.2C59.1016 30.2 59.1016 30.2 59.1016 30.2C59.1016 45.3 59.1016 45.3 59.1016 45.3C59.1016 46.1 58.7016 46.5 57.9016 46.5ZM48.7016 56.2C45.6016 56.2 42.9016 53.5 42.9016 50.4C42.9016 47.3 45.6016 44.6 48.7016 44.6C51.8016 44.6 54.5016 47.3 54.5016 50.4C54.5016 53.5 51.8016 56.2 48.7016 56.2ZM24.9016 46.5C23.7016 43.8 21.1016 42.2 18.0016 42.2C14.9016 42.2 12.2016 43.8 11.1016 46.5C6.10156 46.5 6.10156 46.5 6.10156 46.5C5.30156 46.5 5.30156 46.1 5.30156 45.3C5.30156 9 5.30156 9 5.30156 9C5.30156 8.2 5.30156 8.2 6.10156 8.2C36.1016 8.2 36.1016 8.2 36.1016 8.2C36.1016 46.5 36.1016 46.5 36.1016 46.5H24.9016ZM18.0016 56.2C14.9016 56.2 12.2016 53.5 12.2016 50.4C12.2016 47.3 14.9016 44.6 18.0016 44.6C21.1016 44.6 23.8016 47.3 23.8016 50.4C23.8016 53.5 21.1016 56.2 18.0016 56.2ZM48.3016 13.6C57.9016 27.9 57.9016 27.9 57.9016 27.9C38.7016 27.9 38.7016 27.9 38.7016 27.9C38.7016 13.6 38.7016 13.6 38.7016 13.6H48.3016ZM49.5016 11.3C38.7016 11.3 38.7016 11.3 38.7016 11.3C38.7016 5.5 38.7016 5.5 38.7016 5.5C6.00156 5.5 6.00156 5.5 6.00156 5.5C4.20156 5.5 2.60156 7 2.60156 9C2.60156 45.4 2.60156 45.4 2.60156 45.4C2.60156 47.3 4.10156 48.9 6.10156 48.9C9.90156 48.9 9.90156 48.9 9.90156 48.9C9.90156 49.3 9.90156 50.1 9.90156 50.5C9.90156 55.1 13.4016 58.6 18.0016 58.6C22.2016 58.6 26.1016 55.1 26.1016 50.5C26.1016 50.1 26.1016 49.7 26.1016 48.9C40.7016 48.9 40.7016 48.9 40.7016 48.9C40.7016 49.7 40.7016 50.1 40.7016 50.5C40.7016 55.1 44.2016 58.6 48.8016 58.6C53.4016 58.6 56.9016 55.1 56.9016 50.5C56.9016 50.1 56.9016 49.7 56.9016 48.9C58.1016 48.9 58.1016 48.9 58.1016 48.9C60.0016 48.9 61.6016 47.4 61.6016 45.4C61.6016 28.7 61.6016 28.7 61.6016 28.7L49.5016 11.3Z" fill="#ffffff"/>
</svg>