<svg xmlns="http://www.w3.org/2000/svg" width="64" height="64" viewBox="0 0 64 64" fill="none" class="injected-svg" data-src="../../assets/svgIcons/aa4710f8263c.svg" xmlns:xlink="http://www.w3.org/1999/xlink" role="img">
<path fill-rule="evenodd" clip-rule="evenodd" d="M59.1016 42.8C59.1016 43.2 58.7016 44 57.9016 44C56.0016 44 56.0016 44 56.0016 44C54.5016 41.3 51.8016 39.8 48.7016 39.8C45.6016 39.8 42.9016 41.3 41.8016 44C38.7016 44 38.7016 44 38.7016 44C38.7016 18.5 38.7016 18.5 38.7016 18.5C48.3016 18.5 48.3016 18.5 48.3016 18.5C59.1016 32 59.1016 32 59.1016 32V42.8ZM48.7016 53.6C45.6016 53.6 42.9016 50.9 42.9016 47.8C42.9016 44.7 45.6016 42 48.7016 42C51.8016 42 54.5016 44.7 54.5016 47.8C54.5016 50.9 51.8016 53.6 48.7016 53.6ZM24.9016 44C23.7016 41.3 21.1016 39.8 18.0016 39.8C14.9016 39.8 12.2016 41.3 10.7016 44C6.10156 44 6.10156 44 6.10156 44C5.30156 44 5.30156 43.6 5.30156 43.2C5.30156 11.5 5.30156 11.5 5.30156 11.5C5.30156 11.1 5.30156 10.7 6.10156 10.7C36.1016 10.7 36.1016 10.7 36.1016 10.7C36.0016 44 36.0016 44 36.0016 44C24.9016 44 24.9016 44 24.9016 44ZM18.0016 53.6C14.9016 53.6 12.2016 50.9 12.2016 47.8C12.2016 44.7 14.9016 42 18.0016 42C21.1016 42 23.8016 44.7 23.8016 47.8C23.8016 50.9 21.1016 53.6 18.0016 53.6ZM49.5016 16.2C38.4016 16.2 38.4016 16.2 38.4016 16.2C38.4016 8.1 38.4016 8.1 38.4016 8.1C6.10157 8 6.10156 8 6.10156 8C4.20156 8 2.60156 9.5 2.60156 11.5C2.60156 43.2 2.60156 43.2 2.60156 43.2C2.60156 44.8 4.10156 46.3 6.10156 46.3C9.90156 46.3 9.90156 46.3 9.90156 46.3C9.90156 47.1 9.90156 47.5 9.90156 47.8C9.90156 52.4 13.4016 55.9 18.0016 55.9C22.2016 55.9 26.1016 52.4 26.1016 47.8C26.1016 47.4 26.1016 47 25.7016 46.3C36.1016 46.3 36.1016 46.3 36.1016 46.3C38.4016 46.3 38.4016 46.3 38.4016 46.3C40.7016 46.3 40.7016 46.3 40.7016 46.3C40.7016 47.1 40.7016 47.5 40.7016 47.8C40.7016 52.4 44.2016 55.9 48.8016 55.9C53.4016 55.9 56.9016 52.4 56.9016 47.8C56.9016 47.4 56.9016 47 56.9016 46.3C58.1016 46.3 58.1016 46.3 58.1016 46.3C60.0016 46.3 61.6016 44.8 61.6016 42.8C61.6016 31.2 61.6016 31.2 61.6016 31.2L49.5016 16.2Z" fill="#549abb"/>
</svg>